<svg xmlns="http://www.w3.org/2000/svg" width="48" height="48" viewBox="0 0 48 48">
    <g data-name="Group 440">
        <g>
            <rect data-name="Mask" width="48" height="48" rx="8" style="fill:#fff"/>
            <rect data-name="Mask" width="48" height="48" rx="8" style="fill:rgba(58,51,53,.04)"/>
        </g>
        <path d="M163.833 59.868a7.486 7.486 0 1 0-12.309 5.717c-5.74 1.839-9.323 7.156-10.032 15.223a3.676 3.676 0 0 0 .953 2.793 3.781 3.781 0 0 0 2.78 1.223h22.242a3.781 3.781 0 0 0 2.78-1.223 3.664 3.664 0 0 0 .952-2.791c-.706-8.068-4.289-13.384-10.03-15.223a7.47 7.47 0 0 0 2.664-5.718zm4.881 21.16a1.152 1.152 0 0 1-.307.887 1.282 1.282 0 0 1-.94.413h-22.241a1.282 1.282 0 0 1-.94-.413 1.152 1.152 0 0 1-.308-.887c.449-5.107 2.651-13.673 12.369-13.673s11.921 8.566 12.368 13.673zm-12.367-16.169a4.991 4.991 0 1 1 3.529-1.462 4.99 4.99 0 0 1-3.529 1.462z" transform="translate(-130.713 -45.599)" style="fill:#009182"/>
    </g>
</svg>
