<svg xmlns="http://www.w3.org/2000/svg" width="48" height="48" viewBox="0 0 48 48">
    <g data-name="Group 436">
        <g>
            <rect data-name="Mask" width="48" height="48" rx="8" style="fill:#fff"/>
            <rect data-name="Mask" width="48" height="48" rx="8" style="fill:rgba(58,51,53,.04)"/>
        </g>
        <path data-name="Path 2030" d="M129.254 91.923h19.326a6.374 6.374 0 0 0 6.369-6.369V71.645a6.374 6.374 0 0 0-6.369-6.369h-1.171V62.64a1.464 1.464 0 0 0-2.928 0v2.635h-11.127V62.64a1.464 1.464 0 1 0-2.928 0v2.635h-1.171a6.374 6.374 0 0 0-6.369 6.369v13.91a6.374 6.374 0 0 0 6.369 6.369zm19.4-2.928h-19.4a3.437 3.437 0 0 1-3.441-3.441V74.061h26.281v11.494a3.437 3.437 0 0 1-3.44 3.445zm-19.4-20.795h19.326a3.393 3.393 0 0 1 3.367 2.928h-26.06a3.45 3.45 0 0 1 3.367-2.928zm5.346 9.96a1.469 1.469 0 0 1-1.464 1.464h-3a1.464 1.464 0 1 1 0-2.928h3a1.469 1.469 0 0 1 1.464 1.464zm7.32 0a1.469 1.469 0 0 1-1.464 1.464h-3a1.464 1.464 0 1 1 0-2.928h3a1.469 1.469 0 0 1 1.463 1.464zm7.32 0a1.469 1.469 0 0 1-1.464 1.464h-3a1.464 1.464 0 1 1 0-2.928h3a1.468 1.468 0 0 1 1.463 1.464zm-14.64 6.076a1.469 1.469 0 0 1-1.464 1.464h-3a1.464 1.464 0 0 1 0-2.928h3a1.469 1.469 0 0 1 1.464 1.464zm7.247 0a1.469 1.469 0 0 1-1.467 1.464h-2.928a1.464 1.464 0 0 1 0-2.928h2.928a1.468 1.468 0 0 1 1.464 1.464zm7.32 0A1.469 1.469 0 0 1 147.7 85.7h-3a1.464 1.464 0 0 1 0-2.928h3a1.468 1.468 0 0 1 1.464 1.464z" style="fill:#009182" transform="translate(-114.496 -53.549)"/>
    </g>
</svg>
