<svg xmlns="http://www.w3.org/2000/svg" width="220.904" height="53.856" viewBox="0 0 220.904 53.856">
  <g id="Google" transform="translate(-193.206 -342.332)">
    <g id="Rectangle_67" data-name="Rectangle 67" transform="translate(193.206 342.332)" fill="#fff" stroke="#03014c" stroke-width="0.834" opacity="0.3">
      <rect width="220.904" height="53.856" rx="8.336" stroke="none"/>
      <rect x="0.417" y="0.417" width="220.071" height="53.023" rx="7.919" fill="none"/>
    </g>
    <text id="Login_with_Google" data-name="Login with Google" transform="translate(255.23 361.001) rotate(0.757)" fill="#03014c" font-size="13.338" font-family="Poppins-Medium, Poppins" font-weight="500"><tspan x="0" y="14">Login with Google</tspan></text>
    <g id="Group_235" data-name="Group 235" transform="translate(199.418 277.547)">
      <path id="Path_1986" data-name="Path 1986" d="M449.9,978.457a9.551,9.551,0,0,0-.231-2.257H439.3v4.1h6.09a5.392,5.392,0,0,1-2.257,3.584l-.022.135,3.279,2.541.227.022a10.806,10.806,0,0,0,3.288-8.125" transform="translate(-408.413 -885.236)" fill="#4285f4"/>
      <path id="Path_1987" data-name="Path 1987" d="M223.167,1081.067a10.536,10.536,0,0,0,7.317-2.676l-3.484-2.7a6.528,6.528,0,0,1-3.829,1.1,6.66,6.66,0,0,1-6.287-4.593l-.131.013-3.41,2.637-.044.122a11.013,11.013,0,0,0,9.867,6.095" transform="translate(-192.28 -977.044)" fill="#34a853"/>
      <path id="Path_1988" data-name="Path 1988" d="M191.059,914.6a6.763,6.763,0,0,1-.367-2.187,7.171,7.171,0,0,1,.358-2.187l0-.144-3.453-2.681-.114.052a11.023,11.023,0,0,0,0,9.919l3.58-2.772" transform="translate(-166.459 -819.439)" fill="#fbbc05"/>
      <path id="Path_1989" data-name="Path 1989" d="M222.976,773.555a6.1,6.1,0,0,1,4.27,1.646l3.117-3.043a10.624,10.624,0,0,0-7.392-2.873,11.037,11.037,0,0,0-9.871,6.09l3.571,2.772a6.686,6.686,0,0,1,6.3-4.593" transform="translate(-192.089 -687.354)" fill="#eb4335"/>
    </g>
  </g>
</svg>
