<svg xmlns="http://www.w3.org/2000/svg" width="48" height="48" viewBox="0 0 48 48">
    <defs>
        <style>
            .cls-3{fill:#009182}
        </style>
    </defs>
    <g id="Group_439" data-name="Group 439" transform="translate(-751 -574)">
        <g id="icon" transform="translate(751 574)">
            <g id="Mask">
                <rect id="Mask-2" data-name="Mask" width="48" height="48" rx="8" style="fill:#fff"/>
                <rect id="Mask-3" data-name="Mask" width="48" height="48" rx="8" style="fill:rgba(58,51,53,.04)"/>
            </g>
        </g>
        <g id="noun-faq-170995" transform="translate(577.644 488.266)">
            <path id="Path_2035" data-name="Path 2035" class="cls-3" d="M212.856 101.326a6.685 6.685 0 0 0-6.685-6.685h-16.364a6.685 6.685 0 0 0-6.685 6.685v13.021a6.7 6.7 0 0 0 5.538 6.586v5.638a1.2 1.2 0 0 0 .6 1 .9.9 0 0 0 .5.1 1 1 0 0 0 .649-.2l3.343-2.445a21 21 0 0 1 12.422-4.041 6.685 6.685 0 0 0 6.685-6.685zm-2.2 13.021a4.45 4.45 0 0 1-4.44 4.44 23.447 23.447 0 0 0-13.719 4.44l-1.6 1.147v-4.49a1.107 1.107 0 0 0-1.1-1.1 4.45 4.45 0 0 1-4.44-4.44v-13.018a4.45 4.45 0 0 1 4.44-4.44h16.413a4.45 4.45 0 0 1 4.44 4.44z"/>
            <path id="Path_2036" data-name="Path 2036" class="cls-3" d="M312.763 173.6a3.44 3.44 0 0 0-3.642 3.492 1.1 1.1 0 0 0 2.2 0c0-1.2 1.3-1.247 1.447-1.247s1.447.05 1.447 1.247v.25a1.268 1.268 0 0 1-.7 1.147l-1 .549a1.617 1.617 0 0 0-.848 1.447v.9a1.1 1.1 0 1 0 2.2 0v-.549l.7-.349a3.472 3.472 0 0 0 1.846-3.093v-.3a3.466 3.466 0 0 0-3.642-3.492z" transform="translate(-114.774 -71.924)"/>
            <path id="Path_2037" data-name="Path 2037" class="cls-3" d="M336.227 287.28a1.4 1.4 0 0 0 0 2.794 1.4 1.4 0 0 0 0-2.794z" transform="translate(-138.238 -175.477)"/>
        </g>
    </g>
</svg>
