<svg xmlns="http://www.w3.org/2000/svg" xmlns:xlink="http://www.w3.org/1999/xlink" width="682" height="900" viewBox="0 0 682 900">
  <defs>
    <clipPath id="clip-path">
      <rect id="Rectangle_939" data-name="Rectangle 939" width="682" height="900" transform="translate(758)" fill="#fff"/>
    </clipPath>
    <linearGradient id="linear-gradient" x1="0.358" y1="-0.215" x2="0.5" y2="1" gradientUnits="objectBoundingBox">
      <stop offset="0" stop-color="#0d5683"/>
      <stop offset="1" stop-color="#ff5e2e"/>
    </linearGradient>
    <clipPath id="clip-path-2">
      <rect id="Rectangle_42" data-name="Rectangle 42" width="583.38" height="284.452" fill="none"/>
    </clipPath>
    <radialGradient id="radial-gradient" cx="0.799" cy="0.217" r="1.025" gradientUnits="objectBoundingBox">
      <stop offset="0" stop-color="#ed4c14"/>
      <stop offset="0.022" stop-color="#e14a16"/>
      <stop offset="0.158" stop-color="#9d4125"/>
      <stop offset="0.286" stop-color="#653931"/>
      <stop offset="0.404" stop-color="#39333b"/>
      <stop offset="0.509" stop-color="#1a2f42"/>
      <stop offset="0.598" stop-color="#062c46"/>
      <stop offset="0.659" stop-color="#002c48"/>
    </radialGradient>
    <linearGradient id="linear-gradient-2" x1="0.117" y1="1.016" x2="1.596" y2="-0.148" gradientUnits="objectBoundingBox">
      <stop offset="0" stop-color="#ffef1f"/>
      <stop offset="0.035" stop-color="#fcd821"/>
      <stop offset="0.099" stop-color="#f8b625"/>
      <stop offset="0.165" stop-color="#f59c28"/>
      <stop offset="0.231" stop-color="#f2892a"/>
      <stop offset="0.3" stop-color="#f17d2b"/>
      <stop offset="0.372" stop-color="#f17a2c"/>
      <stop offset="1" stop-color="#e0252a"/>
    </linearGradient>
    <linearGradient id="linear-gradient-3" x1="0.22" y1="-0.117" x2="1.261" y2="2.043" xlink:href="#linear-gradient-2"/>
    <linearGradient id="linear-gradient-4" x1="0.5" y1="0.97" x2="0.5" y2="-0.365" xlink:href="#linear-gradient-2"/>
    <linearGradient id="linear-gradient-5" x1="0.206" y1="0.5" x2="1.036" y2="0.5" xlink:href="#linear-gradient-2"/>
    <linearGradient id="linear-gradient-6" x1="0.748" y1="0.088" x2="0.287" y2="0.538" xlink:href="#linear-gradient-2"/>
    <linearGradient id="linear-gradient-7" x1="0.565" y1="-1.087" x2="0.538" y2="-0.425" gradientUnits="objectBoundingBox">
      <stop offset="0" stop-color="#e8241d"/>
      <stop offset="0.166" stop-color="#cc1920"/>
      <stop offset="0.332" stop-color="#ad0e24"/>
      <stop offset="1" stop-color="#ee5f19"/>
    </linearGradient>
    <linearGradient id="linear-gradient-8" x1="1.033" y1="0.349" x2="0.391" y2="0.671" xlink:href="#linear-gradient-2"/>
    <linearGradient id="linear-gradient-9" x1="-0.049" y1="0.197" x2="0.491" y2="0.844" xlink:href="#linear-gradient-2"/>
    <linearGradient id="linear-gradient-10" x1="0.836" y1="0.547" x2="0.318" y2="0.478" xlink:href="#linear-gradient-2"/>
  </defs>
  <g id="Mask_Group_5" data-name="Mask Group 5" transform="translate(-758)" clip-path="url(#clip-path)">
    <g id="Group_125" data-name="Group 125">
      <path id="Path_213" data-name="Path 213" d="M0,0H1139.572V853.1H0Z" transform="translate(303.658)" fill="url(#linear-gradient)"/>
      <g id="Group_36" data-name="Group 36" transform="translate(251.798 302.592)">
        <g id="Elements" transform="translate(0 0)">
          <path id="Path_170" data-name="Path 170" d="M63.673,581.139V349.682l16.855-34.255-3.185-3.247,9.236-19.972L83.6,289.7c3.736-8.572,7.487-18.214,8.126-19.865l-1.8-1.445,3.8-5.79-2.853-3.2a215.167,215.167,0,0,0,8.388-26.021l3.631-14.519,3.63,14.519a215.093,215.093,0,0,0,8.389,26.021l-2.853,3.2,3.8,5.79-1.8,1.445c.639,1.651,4.39,11.293,8.126,19.865l-2.976,2.506,9.236,19.972-3.186,3.247,14.825,30.127,9.083-18.459-3.3-3.359,9.554-20.66-3.079-2.592c3.862-8.862,7.742-18.835,8.4-20.542l-1.869-1.5,3.95-6.021-2.953-3.309a222.292,222.292,0,0,0,8.656-26.865l3.765-15.06-1.481,1.379c.581-2.147,1.138-4.318,1.664-6.446.521,2.153,1.076,4.353,1.653,6.525l-1.565-1.458,3.765,15.06a222.548,222.548,0,0,0,8.656,26.865l-2.952,3.309,3.95,6.021-1.869,1.5c.661,1.708,4.541,11.68,8.4,20.542l-3.079,2.592,9.554,20.66-3.3,3.359,6.357,12.919,1.4,2.852,7.174-15.516L208.7,325.87c2.214-5.205,4.26-10.482,4.351-10.718l-1.084-.869,2.136-3.255-1.742-1.952a129.861,129.861,0,0,0,5.434-16.753l.657-2.629.657,2.629a129.871,129.871,0,0,0,5.434,16.753l-1.742,1.952,2.136,3.255-1.084.869c.124.32,2.626,6.775,5.086,12.426l-1.844,1.554,7.561,16.352,9.9-21.4-2.515-2.118c3.318-7.624,6.681-16.3,6.884-16.821l-1.509-1.21,3.119-4.753-2.391-2.679a176.588,176.588,0,0,0,7.172-22.24l2.415-9.657,2.415,9.657a176.566,176.566,0,0,0,7.172,22.24l-2.39,2.679,3.118,4.753-1.509,1.21c.028.073,2.878,7.427,5.881,14.49l3.763,8.851,13.095-28.317-2.515-2.117c3.171-7.272,6.343-15.425,6.884-16.822l-1.509-1.21,3.118-4.753-2.39-2.679a176.709,176.709,0,0,0,7.172-22.239l2.414-9.656,2.415,9.656a176.849,176.849,0,0,0,7.172,22.239l-2.39,2.678,3.119,4.753-1.509,1.21c.54,1.4,3.713,9.551,6.884,16.822l-2.514,2.117,7.206,15.581L326.1,312.8l1.32,1.99,2.653-5.391,12.974-8.461h-8.811L345.674,277.7l-2.565-2.615,7.45-16.109-2.4-2.02c3.028-6.944,6.056-14.724,6.572-16.058l-1.436-1.151,2.948-4.493-2.278-2.552a168.571,168.571,0,0,0,6.87-21.287l2.109-8.435,2.109,8.435a168.683,168.683,0,0,0,6.87,21.287l-2.278,2.552,2.948,4.493-1.435,1.151c.517,1.334,3.543,9.114,6.572,16.058l-2.4,2.02,7.449,16.109-2.565,2.615,13.376,27.183V581.139Zm39.3-362.61.051-.2-.136.126-.134-.125.051.2-1.2,1.117c.46-1.716.9-3.444,1.329-5.147.423,1.73.865,3.485,1.324,5.226Z" transform="translate(766.591 -144.266)" fill="#00333c"/>
          <path id="Path_212" data-name="Path 212" d="M63.673,581.139V349.682l16.855-34.255-3.185-3.247,9.236-19.972L83.6,289.7c3.736-8.572,7.487-18.214,8.126-19.865l-1.8-1.445,3.8-5.79-2.853-3.2a215.167,215.167,0,0,0,8.388-26.021l3.631-14.519,3.63,14.519a215.093,215.093,0,0,0,8.389,26.021l-2.853,3.2,3.8,5.79-1.8,1.445c.639,1.651,4.39,11.293,8.126,19.865l-2.976,2.506,9.236,19.972-3.186,3.247,14.825,30.127,9.083-18.459-3.3-3.359,9.554-20.66-3.079-2.592c3.862-8.862,7.742-18.835,8.4-20.542l-1.869-1.5,3.95-6.021-2.953-3.309a222.292,222.292,0,0,0,8.656-26.865l3.765-15.06-1.481,1.379c.581-2.147,1.138-4.318,1.664-6.446.521,2.153,1.076,4.353,1.653,6.525l-1.565-1.458,3.765,15.06a222.548,222.548,0,0,0,8.656,26.865l-2.952,3.309,3.95,6.021-1.869,1.5c.661,1.708,4.541,11.68,8.4,20.542l-3.079,2.592,9.554,20.66-3.3,3.359,6.357,12.919,1.4,2.852,7.174-15.516L208.7,325.87c2.214-5.205,4.26-10.482,4.351-10.718l-1.084-.869,2.136-3.255-1.742-1.952a129.861,129.861,0,0,0,5.434-16.753l.657-2.629.657,2.629a129.871,129.871,0,0,0,5.434,16.753l-1.742,1.952,2.136,3.255-1.084.869c.124.32,2.626,6.775,5.086,12.426l-1.844,1.554,7.561,16.352,9.9-21.4-2.515-2.118c3.318-7.624,6.681-16.3,6.884-16.821l-1.509-1.21,3.119-4.753-2.391-2.679a176.588,176.588,0,0,0,7.172-22.24l2.415-9.657,2.415,9.657a176.566,176.566,0,0,0,7.172,22.24l-2.39,2.679,3.118,4.753-1.509,1.21c.028.073,2.878,7.427,5.881,14.49l3.763,8.851,13.095-28.317-2.515-2.117c3.171-7.272,6.343-15.425,6.884-16.822l-1.509-1.21,3.118-4.753-2.39-2.679a176.709,176.709,0,0,0,7.172-22.239l2.414-9.656,2.415,9.656a176.849,176.849,0,0,0,7.172,22.239l-2.39,2.678,3.119,4.753-1.509,1.21c.54,1.4,3.713,9.551,6.884,16.822l-2.514,2.117,7.206,15.581L326.1,312.8l1.32,1.99,2.653-5.391,12.974-8.461h-8.811L345.674,277.7l-2.565-2.615,7.45-16.109-2.4-2.02c3.028-6.944,6.056-14.724,6.572-16.058l-1.436-1.151,2.948-4.493-2.278-2.552a168.571,168.571,0,0,0,6.87-21.287l2.109-8.435,2.109,8.435a168.683,168.683,0,0,0,6.87,21.287l-2.278,2.552,2.948,4.493-1.435,1.151c.517,1.334,3.543,9.114,6.572,16.058l-2.4,2.02,7.449,16.109-2.565,2.615,13.376,27.183V581.139Zm39.3-362.61.051-.2-.136.126-.134-.125.051.2-1.2,1.117c.46-1.716.9-3.444,1.329-5.147.423,1.73.865,3.485,1.324,5.226Z" transform="translate(904.222 -144.266)" fill="#00333c"/>
          <path id="Path_206" data-name="Path 206" d="M63.673,581.139V349.682l16.855-34.255-3.185-3.247,9.236-19.972L83.6,289.7c3.736-8.572,7.487-18.214,8.126-19.865l-1.8-1.445,3.8-5.79-2.853-3.2a215.167,215.167,0,0,0,8.388-26.021l3.631-14.519,3.63,14.519a215.093,215.093,0,0,0,8.389,26.021l-2.853,3.2,3.8,5.79-1.8,1.445c.639,1.651,4.39,11.293,8.126,19.865l-2.976,2.506,9.236,19.972-3.186,3.247,14.825,30.127,9.083-18.459-3.3-3.359,9.554-20.66-3.079-2.592c3.862-8.862,7.742-18.835,8.4-20.542l-1.869-1.5,3.95-6.021-2.953-3.309a222.292,222.292,0,0,0,8.656-26.865l3.765-15.06-1.481,1.379c.581-2.147,1.138-4.318,1.664-6.446.521,2.153,1.076,4.353,1.653,6.525l-1.565-1.458,3.765,15.06a222.548,222.548,0,0,0,8.656,26.865l-2.952,3.309,3.95,6.021-1.869,1.5c.661,1.708,4.541,11.68,8.4,20.542l-3.079,2.592,9.554,20.66-3.3,3.359,6.357,12.919,1.4,2.852,7.174-15.516L208.7,325.87c2.214-5.205,4.26-10.482,4.351-10.718l-1.084-.869,2.136-3.255-1.742-1.952a129.861,129.861,0,0,0,5.434-16.753l.657-2.629.657,2.629a129.871,129.871,0,0,0,5.434,16.753l-1.742,1.952,2.136,3.255-1.084.869c.124.32,2.626,6.775,5.086,12.426l-1.844,1.554,7.561,16.352,9.9-21.4-2.515-2.118c3.318-7.624,6.681-16.3,6.884-16.821l-1.509-1.21,3.119-4.753-2.391-2.679a176.588,176.588,0,0,0,7.172-22.24l2.415-9.657,2.415,9.657a176.566,176.566,0,0,0,7.172,22.24l-2.39,2.679,3.118,4.753-1.509,1.21c.028.073,2.878,7.427,5.881,14.49l3.763,8.851,13.095-28.317-2.515-2.117c3.171-7.272,6.343-15.425,6.884-16.822l-1.509-1.21,3.118-4.753-2.39-2.679a176.709,176.709,0,0,0,7.172-22.239l2.414-9.656,2.415,9.656a176.849,176.849,0,0,0,7.172,22.239l-2.39,2.678,3.119,4.753-1.509,1.21c.54,1.4,3.713,9.551,6.884,16.822l-2.514,2.117,7.206,15.581L326.1,312.8l1.32,1.99,2.653-5.391,12.974-8.461h-8.811L345.674,277.7l-2.565-2.615,7.45-16.109-2.4-2.02c3.028-6.944,6.056-14.724,6.572-16.058l-1.436-1.151,2.948-4.493-2.278-2.552a168.571,168.571,0,0,0,6.87-21.287l2.109-8.435,2.109,8.435a168.683,168.683,0,0,0,6.87,21.287l-2.278,2.552,2.948,4.493-1.435,1.151c.517,1.334,3.543,9.114,6.572,16.058l-2.4,2.02,7.449,16.109-2.565,2.615,13.376,27.183V581.139Zm39.3-362.61.051-.2-.136.126-.134-.125.051.2-1.2,1.117c.46-1.716.9-3.444,1.329-5.147.423,1.73.865,3.485,1.324,5.226Z" transform="translate(505.118 -126.876)" fill="#00333c"/>
          <path id="Path_211" data-name="Path 211" d="M63.673,581.139V349.682l16.855-34.255-3.185-3.247,9.236-19.972L83.6,289.7c3.736-8.572,7.487-18.214,8.126-19.865l-1.8-1.445,3.8-5.79-2.853-3.2a215.167,215.167,0,0,0,8.388-26.021l3.631-14.519,3.63,14.519a215.093,215.093,0,0,0,8.389,26.021l-2.853,3.2,3.8,5.79-1.8,1.445c.639,1.651,4.39,11.293,8.126,19.865l-2.976,2.506,9.236,19.972-3.186,3.247,14.825,30.127,9.083-18.459-3.3-3.359,9.554-20.66-3.079-2.592c3.862-8.862,7.742-18.835,8.4-20.542l-1.869-1.5,3.95-6.021-2.953-3.309a222.292,222.292,0,0,0,8.656-26.865l3.765-15.06-1.481,1.379c.581-2.147,1.138-4.318,1.664-6.446.521,2.153,1.076,4.353,1.653,6.525l-1.565-1.458,3.765,15.06a222.548,222.548,0,0,0,8.656,26.865l-2.952,3.309,3.95,6.021-1.869,1.5c.661,1.708,4.541,11.68,8.4,20.542l-3.079,2.592,9.554,20.66-3.3,3.359,6.357,12.919,1.4,2.852,7.174-15.516L208.7,325.87c2.214-5.205,4.26-10.482,4.351-10.718l-1.084-.869,2.136-3.255-1.742-1.952a129.861,129.861,0,0,0,5.434-16.753l.657-2.629.657,2.629a129.871,129.871,0,0,0,5.434,16.753l-1.742,1.952,2.136,3.255-1.084.869c.124.32,2.626,6.775,5.086,12.426l-1.844,1.554,7.561,16.352,9.9-21.4-2.515-2.118c3.318-7.624,6.681-16.3,6.884-16.821l-1.509-1.21,3.119-4.753-2.391-2.679a176.588,176.588,0,0,0,7.172-22.24l2.415-9.657,2.415,9.657a176.566,176.566,0,0,0,7.172,22.24l-2.39,2.679,3.118,4.753-1.509,1.21c.028.073,2.878,7.427,5.881,14.49l3.763,8.851,13.095-28.317-2.515-2.117c3.171-7.272,6.343-15.425,6.884-16.822l-1.509-1.21,3.118-4.753-2.39-2.679a176.709,176.709,0,0,0,7.172-22.239l2.414-9.656,2.415,9.656a176.849,176.849,0,0,0,7.172,22.239l-2.39,2.678,3.119,4.753-1.509,1.21c.54,1.4,3.713,9.551,6.884,16.822l-2.514,2.117,7.206,15.581L326.1,312.8l1.32,1.99,2.653-5.391,12.974-8.461h-8.811L345.674,277.7l-2.565-2.615,7.45-16.109-2.4-2.02c3.028-6.944,6.056-14.724,6.572-16.058l-1.436-1.151,2.948-4.493-2.278-2.552a168.571,168.571,0,0,0,6.87-21.287l2.109-8.435,2.109,8.435a168.683,168.683,0,0,0,6.87,21.287l-2.278,2.552,2.948,4.493-1.435,1.151c.517,1.334,3.543,9.114,6.572,16.058l-2.4,2.02,7.449,16.109-2.565,2.615,13.376,27.183V581.139Zm39.3-362.61.051-.2-.136.126-.134-.125.051.2-1.2,1.117c.46-1.716.9-3.444,1.329-5.147.423,1.73.865,3.485,1.324,5.226Z" transform="translate(217.059 -126.876)" fill="#00333c"/>
          <path id="Path_171" data-name="Path 171" d="M568.917,299.151l-11.956-18.512,11.956,9.126v-2.446l-21.341-36.2,16.295,11.9-20.93-22.845,14.546,8.589c-12.023-12.369-23.616-45.566-23.616-45.566l6.556,4.371c-9.462-12.109-21.351-54.968-21.351-54.968s-11.516,42.859-20.987,54.968l6.566-4.371s-11.593,33.2-23.616,45.566l14.546-8.589-20.93,22.845,16.295-11.9s-18.512,34.248-25.785,42.039l16.4-12.515L456.8,318.966l13.562-7.423-20.586,29.946-9.853-14.34,14.03,7.684-25.623-39.662L445.3,308.13c-7.521-8.067-26.674-43.5-26.674-43.5l16.859,12.308-21.666-23.634,15.052,8.888c-12.434-12.791-24.428-47.146-24.428-47.146l6.786,4.524c-9.787-12.53-22.087-56.878-22.087-56.878s-11.927,44.347-21.714,56.878l6.786-4.524S362.225,249.4,349.791,262.2l15.053-8.888-21.666,23.634,16.868-12.308s-19.162,35.429-26.683,43.5l16.973-12.96-20.653,31.978c-4.415-7.323-8.793-15.422-8.793-15.422l10.1,7.377-12.969-14.156,9.012,5.322C319.59,302.6,312.4,282.027,312.4,282.027l4.062,2.715c-5.859-7.508-13.237-34.071-13.237-34.071s-7.139,26.564-13,34.071l4.062-2.715s-7.187,20.575-14.632,28.243l9.012-5.322L275.7,319.1l10.092-7.37c-.2.376-6.661,12.3-11.736,20.184-6.881-8.98-20.185-33.573-20.185-33.573l13.762,10.046L249.957,289.1l12.281,7.254C252.1,285.907,242.3,257.871,242.3,257.871l5.543,3.7c-7.99-10.23-18.034-46.425-18.034-46.425s-9.729,36.2-17.719,46.425l5.534-3.7s-9.786,28.036-19.936,38.481L209.97,289.1l-17.681,19.294,13.772-10.046s-5.256,9.716-10.876,19.171L178.24,291.283,192.1,301.858c-6.145-6.587-21.781-35.505-21.781-35.505L184.08,276.4,166.4,257.112l12.29,7.254c-10.15-10.445-19.946-38.481-19.946-38.481l5.543,3.689c-7.99-10.23-18.034-46.425-18.034-46.425s-9.729,36.2-17.719,46.425l5.534-3.689s-9.786,28.036-19.936,38.481l12.281-7.254L108.731,276.4,122.5,266.352s-15.578,28.811-21.742,35.459l-28-40.735,10.914,5.981L63.736,236.184l13.208,10.084C71.086,239.988,56.177,212.4,56.177,212.4l13.131,9.586-16.868-18.4,11.717,6.917c-9.681-9.961-19.019-36.7-19.019-36.7l5.285,3.52c-7.627-9.754-17.2-44.278-17.2-44.278s-9.28,34.524-16.9,44.278l5.285-3.52s-9.347,26.74-19.019,36.7l11.717-6.917L0,219.2v.92L10.57,212.4,0,231.031v7.454l3.01-2.3L0,240.847v435.78H568.917V312.639l-.755-1.1.755.414Zm-463.234,5.9-4.96-3.2-.048-.023h.067c-.01.008-.01.015-.019.023l.029-.023h.019l-.01-.008,13.82-10.544ZM261.8,323.268l11.956,9.126c-1.176,1.8-2.256,3.359-3.163,4.486Zm11.277,17.461-2.351-3.635,4.587-3.5.344.253c-.086-.092-.182-.207-.277-.307l4.607-3.512Zm54.189-9.846-.554-.859.745.567Zm4.32,6.687-3.1-4.8,1.061-.583,3.756,2.876Zm2.437-3.55c-.65-.966-1.348-2.025-2.055-3.152l6.776-3.719Z" transform="translate(629.96 -96.931)" fill="#070f31"/>
          <path id="Path_210" data-name="Path 210" d="M568.917,299.151l-11.956-18.512,11.956,9.126v-2.446l-21.341-36.2,16.295,11.9-20.93-22.845,14.546,8.589c-12.023-12.369-23.616-45.566-23.616-45.566l6.556,4.371c-9.462-12.109-21.351-54.968-21.351-54.968s-11.516,42.859-20.987,54.968l6.566-4.371s-11.593,33.2-23.616,45.566l14.546-8.589-20.93,22.845,16.295-11.9s-18.512,34.248-25.785,42.039l16.4-12.515L456.8,318.966l13.562-7.423-20.586,29.946-9.853-14.34,14.03,7.684-25.623-39.662L445.3,308.13c-7.521-8.067-26.674-43.5-26.674-43.5l16.859,12.308-21.666-23.634,15.052,8.888c-12.434-12.791-24.428-47.146-24.428-47.146l6.786,4.524c-9.787-12.53-22.087-56.878-22.087-56.878s-11.927,44.347-21.714,56.878l6.786-4.524S362.225,249.4,349.791,262.2l15.053-8.888-21.666,23.634,16.868-12.308s-19.162,35.429-26.683,43.5l16.973-12.96-20.653,31.978c-4.415-7.323-8.793-15.422-8.793-15.422l10.1,7.377-12.969-14.156,9.012,5.322C319.59,302.6,312.4,282.027,312.4,282.027l4.062,2.715c-5.859-7.508-13.237-34.071-13.237-34.071s-7.139,26.564-13,34.071l4.062-2.715s-7.187,20.575-14.632,28.243l9.012-5.322L275.7,319.1l10.092-7.37c-.2.376-6.661,12.3-11.736,20.184-6.881-8.98-20.185-33.573-20.185-33.573l13.762,10.046L249.957,289.1l12.281,7.254C252.1,285.907,242.3,257.871,242.3,257.871l5.543,3.7c-7.99-10.23-18.034-46.425-18.034-46.425s-9.729,36.2-17.719,46.425l5.534-3.7s-9.786,28.036-19.936,38.481L209.97,289.1l-17.681,19.294,13.772-10.046s-5.256,9.716-10.876,19.171L178.24,291.283,192.1,301.858c-6.145-6.587-21.781-35.505-21.781-35.505L184.08,276.4,166.4,257.112l12.29,7.254c-10.15-10.445-19.946-38.481-19.946-38.481l5.543,3.689c-7.99-10.23-18.034-46.425-18.034-46.425s-9.729,36.2-17.719,46.425l5.534-3.689s-9.786,28.036-19.936,38.481l12.281-7.254L108.731,276.4,122.5,266.352s-15.578,28.811-21.742,35.459l-28-40.735,10.914,5.981L63.736,236.184l13.208,10.084C71.086,239.988,56.177,212.4,56.177,212.4l13.131,9.586-16.868-18.4,11.717,6.917c-9.681-9.961-19.019-36.7-19.019-36.7l5.285,3.52c-7.627-9.754-17.2-44.278-17.2-44.278s-9.28,34.524-16.9,44.278l5.285-3.52s-9.347,26.74-19.019,36.7l11.717-6.917L0,219.2v.92L10.57,212.4,0,231.031v7.454l3.01-2.3L0,240.847v435.78H568.917V312.639l-.755-1.1.755.414Zm-463.234,5.9-4.96-3.2-.048-.023h.067c-.01.008-.01.015-.019.023l.029-.023h.019l-.01-.008,13.82-10.544ZM261.8,323.268l11.956,9.126c-1.176,1.8-2.256,3.359-3.163,4.486Zm11.277,17.461-2.351-3.635,4.587-3.5.344.253c-.086-.092-.182-.207-.277-.307l4.607-3.512Zm54.189-9.846-.554-.859.745.567Zm4.32,6.687-3.1-4.8,1.061-.583,3.756,2.876Zm2.437-3.55c-.65-.966-1.348-2.025-2.055-3.152l6.776-3.719Z" transform="translate(1098.856 -79.219)" fill="#070f31"/>
          <path id="Path_207" data-name="Path 207" d="M465.049,268.825l-9.773-15.132,9.773,7.46v-2L447.6,229.56l13.32,9.729-17.109-18.674,11.89,7.021c-9.828-10.111-19.3-37.247-19.3-37.247l5.359,3.573c-7.734-9.9-17.453-44.932-17.453-44.932s-9.414,35.035-17.156,44.932l5.367-3.573s-9.476,27.136-19.3,37.247l11.89-7.021L388,239.288l13.32-9.729s-15.132,28-21.077,34.364l13.406-10.23L373.4,285.023l11.086-6.068-16.828,24.478-8.054-11.722,11.468,6.281L350.13,265.572l13.875,10.594c-6.148-6.594-21.8-35.555-21.8-35.555l13.781,10.061-17.71-19.319,12.3,7.265c-10.164-10.456-19.968-38.539-19.968-38.539l5.547,3.7c-8-10.243-18.054-46.493-18.054-46.493s-9.75,36.251-17.749,46.493l5.547-3.7s-9.8,28.083-19.968,38.539l12.3-7.265-17.71,19.319,13.789-10.061s-15.664,28.96-21.812,35.555l13.875-10.594-16.882,26.14c-3.609-5.986-7.187-12.606-7.187-12.606l8.258,6.03-10.6-11.572,7.367,4.35c-6.086-6.268-11.961-23.087-11.961-23.087l3.32,2.219c-4.789-6.137-10.82-27.851-10.82-27.851s-5.836,21.714-10.625,27.851l3.32-2.219s-5.875,16.818-11.961,23.087l7.367-4.35-10.6,11.572,8.25-6.024c-.164.307-5.445,10.055-9.593,16.5-5.625-7.34-16.5-27.443-16.5-27.443l11.25,8.212-14.453-15.772,10.039,5.93c-8.289-8.538-16.3-31.455-16.3-31.455L202.6,238.1c-6.531-8.362-14.742-37.949-14.742-37.949S179.9,229.741,173.37,238.1l4.523-3.021s-8,22.918-16.3,31.455l10.039-5.93-14.453,15.772,11.257-8.212s-4.3,7.942-8.89,15.671L145.7,262.394l11.328,8.644c-5.023-5.385-17.8-29.023-17.8-29.023l11.25,8.212-14.453-15.765,10.047,5.93c-8.3-8.538-16.3-31.455-16.3-31.455l4.531,3.015C127.762,203.589,119.551,174,119.551,174s-7.953,29.587-14.484,37.949l4.523-3.015s-8,22.918-16.3,31.455l10.039-5.93L88.88,250.227l11.257-8.212S87.4,265.566,82.365,271l-22.89-33.3,8.922,4.889L52.1,217.355,62.9,225.6c-4.789-5.134-16.976-27.682-16.976-27.682l10.734,7.836L42.866,190.714l9.578,5.654c-7.914-8.143-15.546-30-15.546-30l4.32,2.877c-6.234-7.974-14.062-36.194-14.062-36.194s-7.586,28.221-13.812,36.194l4.32-2.877s-7.64,21.858-15.546,30l9.578-5.654L0,203.47v.752l8.64-6.306L0,213.142v6.093l2.461-1.881L0,221.166V577.385H465.049V279.852l-.617-.9.617.339ZM86.388,273.652l-4.055-2.614-.039-.019h.055c-.008.006-.008.013-.016.019l.023-.019h.016l-.008-.006,11.3-8.619ZM214,288.54l9.773,7.46c-.961,1.473-1.844,2.746-2.586,3.667Zm9.218,14.273-1.922-2.971,3.75-2.865.281.207c-.07-.075-.148-.169-.227-.251l3.766-2.871Zm44.3-8.049-.453-.7.609.464Zm3.531,5.466-2.531-3.924.867-.476,3.07,2.351Zm1.992-2.9c-.531-.79-1.1-1.655-1.68-2.576l5.539-3.04Z" transform="translate(237.379 -133.05)" fill="#070f31"/>
          <g id="Group_27" data-name="Group 27" transform="translate(538.573 105.567)">
            <g id="Group_26" data-name="Group 26" transform="translate(0)" clip-path="url(#clip-path-2)">
              <g id="Group_25" data-name="Group 25" transform="translate(20.197 5.72)">
                <g id="Group_24" data-name="Group 24">
                  <path id="Path_172" data-name="Path 172" d="M180.288,337.586s-62.205,32.89-164.45,10.725c0,0-112.256,203.776-181.611,249.536H74.467Z" transform="translate(165.773 -337.586)" fill="#711324"/>
                  <path id="Path_173" data-name="Path 173" d="M16.791,350.694c90.617,19.644,150.258-4.864,162.544-10.487l.953-2.622s-62.205,32.889-164.45,10.725c0,0-112.256,203.776-181.611,249.536h4.405C-91.807,547.829,16.791,350.694,16.791,350.694Z" transform="translate(165.773 -337.586)" fill="#911024"/>
                </g>
                <path id="Path_174" data-name="Path 174" d="M190.225,337.586S301.765,533.5,379.7,597.846H20.769S94.414,532.067,190.225,337.586Z" transform="translate(155.836 -337.586)" fill="#911024"/>
                <path id="Path_175" data-name="Path 175" d="M195.334,341.236,116.683,589.461s35.751,2.145,46.475,7.865Z" transform="translate(150.727 -337.78)" fill="#e8251c"/>
                <path id="Path_176" data-name="Path 176" d="M200.011,341.991l61.966,255.375s27.17-14.3,37.895-14.3Z" transform="translate(146.289 -337.821)" fill="#e8251c"/>
                <path id="Path_177" data-name="Path 177" d="M197.83,341.614l62.324,255.733h-94.38Z" transform="translate(148.112 -337.801)" fill="#361723"/>
                <path id="Path_178" data-name="Path 178" d="M20.769,599.861S94.414,534.081,190.225,339.6c0,0,111.54,195.91,189.475,260.261" transform="translate(155.836 -337.693)" fill="none" stroke="#e8241d" stroke-width="2"/>
              </g>
            </g>
          </g>
          <path id="Path_179" data-name="Path 179" d="M1151.411,617.158V838.147H0V598.327a187.378,187.378,0,0,0,24.72,8.839q-8.53-6.444-17.079-12.879a136.986,136.986,0,0,1,31.586,13.253c-2.592-4.454-7.311-8.573-13.675-11.9,10.426,2.335,19.516,6.168,25.957,10.947q-.87-9.622-1.741-19.234a45.362,45.362,0,0,0,10.213,14.288c-1.141-4.543.426-9.253,4.429-13.352-1.335,4.493.6,9.213,5.358,13.056C75.28,595.7,83.482,590.73,93.443,587c-5.764,3.991-8.743,9.006-8.3,13.953,1.721-3.064,5.261-5.863,10.019-7.932-2.843,4.02-2.592,8.592.735,12.524a12.561,12.561,0,0,0,1.876-10.81c6.151,4.8,10.445,10.208,12.65,15.835.077.059.155.108.232.167a19.4,19.4,0,0,0-2.128-11.578c6.557,4.631,10.677,10.13,12.07,15.8,1.393-5.666,5.532-11.164,12.07-15.8a19.547,19.547,0,0,0-2.128,11.578c.077-.059.174-.108.251-.167,2.186-5.627,6.5-11.036,12.65-15.835a12.5,12.5,0,0,0,1.876,10.81c3.308-3.932,3.578-8.5.716-12.524,4.778,2.069,8.3,4.868,10.019,7.932.464-4.946-2.514-9.962-8.3-13.953,9.981,3.735,18.162,8.7,23.675,14.347,4.758-3.843,6.692-8.563,5.358-13.056,4.023,4.1,5.571,8.809,4.449,13.352a45.6,45.6,0,0,0,10.193-14.288q-.87,9.607-1.721,19.234c6.441-4.779,15.532-8.612,25.938-10.947-6.344,3.331-11.083,7.449-13.675,11.9a136.79,136.79,0,0,1,31.605-13.253q-8.559,6.444-17.1,12.879c17.93-5.075,33.714-12.11,45.957-20.486q1.016,5.957,1.992,11.923a21.516,21.516,0,0,0,3.752-10.9,26.435,26.435,0,0,1,5.455,12.78q.116-7.228.232-14.465c4.468,6.76,9.574,14.061,11.335,21.136.638-5.311,3.327-10.543,7.737-15.382v-.207a.886.886,0,0,0,.1.108,1.025,1.025,0,0,1,.077-.108v.207c4.41,4.838,7.1,10.07,7.737,15.382,1.76-7.075,6.867-14.376,11.335-21.136q.116,7.227.232,14.465a26.435,26.435,0,0,1,5.454-12.78,21.516,21.516,0,0,0,3.752,10.9q.986-5.956,1.992-11.923c12.244,8.376,28.027,15.411,45.957,20.486q-8.559-6.444-17.1-12.879a136.791,136.791,0,0,1,31.605,13.253c-2.592-4.454-7.331-8.573-13.675-11.9,10.406,2.335,19.516,6.168,25.938,10.947q-.841-9.622-1.721-19.234a45.6,45.6,0,0,0,10.193,14.288c-1.122-4.543.445-9.253,4.449-13.352-1.335,4.493.6,9.213,5.358,13.056C420.135,595.7,428.317,590.73,438.3,587c-5.783,3.991-8.762,9.006-8.3,13.953,1.721-3.064,5.242-5.863,10.019-7.932-2.766,3.882-2.573,8.267.406,12.091.155.079.29.158.445.236a12.465,12.465,0,0,0,1.741-10.612c6.344,4.946,10.735,10.534,12.863,16.338a19.562,19.562,0,0,0-2.089-11.913,34.979,34.979,0,0,1,9.168,9.184,34.687,34.687,0,0,1,9.168-9.184,19.288,19.288,0,0,0-2.089,11.913c2.108-5.8,6.518-11.391,12.843-16.338a12.474,12.474,0,0,0,1.76,10.612c.155-.079.29-.158.425-.236,3-3.823,3.172-8.208.426-12.091,4.758,2.069,8.3,4.868,10.019,7.932.445-4.946-2.534-9.962-8.3-13.953,9.961,3.735,18.162,8.7,23.675,14.347,4.758-3.843,6.692-8.563,5.358-13.056,4,4.1,5.571,8.809,4.429,13.352a45.364,45.364,0,0,0,10.213-14.288q-.87,9.607-1.741,19.234c6.441-4.779,15.532-8.612,25.958-10.947-6.364,3.331-11.083,7.449-13.675,11.9a136.984,136.984,0,0,1,31.586-13.253q-8.53,6.444-17.079,12.879c17.93-5.075,33.714-12.11,45.957-20.486.658,3.971,1.335,7.952,1.992,11.923a21.7,21.7,0,0,0,3.752-10.9,26.214,26.214,0,0,1,5.435,12.78c.077-4.819.174-9.647.251-14.465,4.468,6.76,9.574,14.061,11.335,21.136.619-5.311,3.327-10.543,7.718-15.382v-.207a.1.1,0,1,0,.193,0v.207c4.41,4.838,7.1,10.07,7.737,15.382,1.741-7.075,6.847-14.376,11.335-21.136q.116,7.227.232,14.465a26.071,26.071,0,0,1,5.455-12.78,21.484,21.484,0,0,0,3.733,10.9q1.016-5.956,1.992-11.923c12.263,8.376,28.027,15.411,45.957,20.486q-8.53-6.444-17.079-12.879a136.985,136.985,0,0,1,31.586,13.253c-2.573-4.454-7.311-8.573-13.675-11.9,10.426,2.335,19.516,6.168,25.957,10.947q-.871-9.622-1.721-19.234a44.98,44.98,0,0,0,10.193,14.288c-1.141-4.543.426-9.253,4.429-13.352-1.335,4.493.6,9.213,5.358,13.056C759.167,595.7,767.369,590.73,777.33,587c-5.764,3.991-8.743,9.006-8.3,13.953,1.722-3.064,5.261-5.863,10.019-7.932-2.843,4.02-2.572,8.592.735,12.524a12.56,12.56,0,0,0,1.876-10.81c6.151,4.8,10.464,10.208,12.65,15.835a2.824,2.824,0,0,0,.251.167,19.56,19.56,0,0,0-2.147-11.578c6.557,4.631,10.7,10.13,12.07,15.8,1.392-5.666,5.532-11.164,12.069-15.8a19.694,19.694,0,0,0-2.128,11.578c.077-.059.174-.108.251-.167,2.186-5.627,6.5-11.036,12.65-15.835a12.5,12.5,0,0,0,1.876,10.81c3.307-3.932,3.578-8.5.735-12.524,4.758,2.069,8.279,4.868,10.019,7.932.445-4.946-2.534-9.962-8.317-13.953,9.981,3.735,18.162,8.7,23.694,14.347,4.739-3.843,6.692-8.563,5.358-13.056,4,4.1,5.571,8.809,4.429,13.352a45.287,45.287,0,0,0,10.193-14.288c-.58,6.4-1.141,12.82-1.721,19.234,6.441-4.779,15.532-8.612,25.938-10.947-6.344,3.331-11.083,7.449-13.656,11.9a136.27,136.27,0,0,1,31.586-13.253q-8.559,6.444-17.079,12.879c17.911-5.075,33.694-12.11,45.957-20.486q.986,5.957,1.973,11.923a21.515,21.515,0,0,0,3.752-10.9,26.253,26.253,0,0,1,5.455,12.78l.232-14.465c4.468,6.76,9.594,14.061,11.335,21.136.638-5.311,3.327-10.543,7.737-15.382v-.207a1.038,1.038,0,0,1,.1.108,1.08,1.08,0,0,1,.077-.108v.207c4.41,4.838,7.1,10.07,7.737,15.382,1.76-7.075,6.866-14.376,11.335-21.136q.116,7.227.232,14.465a26.435,26.435,0,0,1,5.454-12.78,21.7,21.7,0,0,0,3.753,10.9q.986-5.956,1.992-11.923c12.244,8.376,28.027,15.411,45.958,20.486q-8.559-6.444-17.1-12.879a136.793,136.793,0,0,1,31.605,13.253c-2.592-4.454-7.331-8.573-13.675-11.9,10.406,2.335,19.516,6.168,25.938,10.947q-.842-9.622-1.721-19.234a45.6,45.6,0,0,0,10.193,14.288c-1.122-4.543.445-9.253,4.449-13.352-1.334,4.493.6,9.213,5.358,13.056,5.513-5.646,13.695-10.612,23.675-14.347-5.783,3.991-8.762,9.006-8.3,13.953,1.722-3.064,5.261-5.863,10.019-7.932-2.863,4.02-2.592,8.592.735,12.524a12.552,12.552,0,0,0,1.857-10.81c6.344,4.946,10.754,10.534,12.863,16.338a19.422,19.422,0,0,0-2.089-11.913c7.969,5.646,12.437,12.554,12.611,19.51C1150.366,618.163,1150.869,617.66,1151.411,617.158Z" transform="translate(34.946 -240.739)" fill="url(#radial-gradient)"/>
          <g id="Group_32" data-name="Group 32" transform="translate(887.243 393.806)">
            <path id="Path_180" data-name="Path 180" d="M333.059,715.517s10.329,4.677,17.541,2.923,20.27-12.863,20.27-12.863-10.72,18.32,9.355,18.9l4.093.2V696.612H349.625Z" transform="translate(-326.698 -688.521)" fill="#002c48" opacity="0.22" style="mix-blend-mode: multiply;isolation: isolate"/>
            <path id="Path_181" data-name="Path 181" d="M521.522,716.769V700.59l-3.486-3.978H483.344v28.065l4.093-.2c20.075-.585,8.381-22.413,8.381-22.413s18.126,12.863,25.337,14.617C521.278,716.716,521.4,716.742,521.522,716.769Z" transform="translate(-425.725 -688.521)" fill="#002c48" opacity="0.22" style="mix-blend-mode: multiply;isolation: isolate"/>
            <g id="Group_28" data-name="Group 28" transform="translate(64.232 0)">
              <path id="Path_182" data-name="Path 182" d="M534.3,678.589c-4.489-.782-8.947-1.806-13.414-2.579-4.35-.753-8.512-2.654-12.956-3.083-.005-.156-.467.222-.9.391a5.653,5.653,0,0,0-3.9,2.5,4.881,4.881,0,0,0-.185,3.407c.232.859.654,1.538,1.258,1.566l.066.319c1.5,1.751,4.006,2.9,6.172,3.846a97.628,97.628,0,0,1,10.729,5.47c4.272,2.537,8.724,4.968,13.132,7.225Z" transform="translate(-502.733 -672.89)" fill="#5e1523"/>
              <path id="Path_183" data-name="Path 183" d="M589.941,718.435c-.94.017-1.875.054-2.763-.011.961.3,1.89.69,2.763.99Z" transform="translate(-558.376 -702.894)" fill="#390d15"/>
              <path id="Path_184" data-name="Path 184" d="M532.321,694.605c2.046,1.528,5.087,1.985,7.379,3.129,1.708.853,3.579,1.618,5.19,2.592-2.238.307-5.043-1.913-7.037-2.75s-4.109-1.494-5.825-2.886c.217.044.459.1.682.167Z" transform="translate(-522.036 -687.199)" fill="#390d15"/>
            </g>
            <g id="Group_29" data-name="Group 29" transform="translate(0 0.21)">
              <path id="Path_185" data-name="Path 185" d="M366.435,680.726c-.042-.339-.095-.674-.155-1.005-.562-3.094-1.992-5.773-5.48-6.114-4.248-.415-7.718.516-11.633,1.341-4.467.941-8.715,2.165-13.187,3.275-2.526.627-13.918,1.62-14.325,3.188l.222,1.414c-3.994,3.242.556,12.624,3.869,15.581a11.816,11.816,0,0,0,5.019,2.685c5.455,1.391,11.659-1.026,16.658-3.684a96.1,96.1,0,0,0,13.154-8.514C363.5,686.665,366.957,684.978,366.435,680.726Z" transform="translate(-318.302 -673.505)" fill="#5e1523"/>
              <path id="Path_186" data-name="Path 186" d="M330.912,698.187c-1.732-1.589-14.849-7.568-14.952-2.265-3.244,2.5-.668,11.708,1.139,14.25,2.122,2.985,6.37,5.09,9.913,5.612C337.141,717.275,336.337,703.162,330.912,698.187Z" transform="translate(-314.41 -686.859)" fill="#fcb387"/>
              <path id="Path_209" data-name="Path 209" d="M3.041,3.406C4.377,2.181,14.5-2.433,14.577,1.659c2.5,1.931.516,9.033-.879,10.994a12.147,12.147,0,0,1-7.648,4.33C-1.765,18.133-1.145,7.245,3.041,3.406Z" transform="translate(84.982 13.778) rotate(-39)" fill="#fcb387"/>
              <path id="Path_187" data-name="Path 187" d="M327.971,711.2a1.656,1.656,0,0,1-.334-.93c0-1.1.441-1.683,1.213-1.612a4.13,4.13,0,0,1,2.685,2.312,5.588,5.588,0,0,1,.682,3c-.281,3.637-3.58,3.108-5.727,1.144a10.067,10.067,0,0,1-2.947-4.62c-.779-2.512-.587-5.478.412-6.346a2.864,2.864,0,0,1,.882-.522c2.253-.84,5.77.919,8.4,4.383a15.791,15.791,0,0,1,2.732,5.973,4.835,4.835,0,0,1-.311,3.642c-.133.192-.411.031-.619-.35" transform="translate(-320.112 -693.217)" fill="none" stroke="#ad7d60" stroke-width="3"/>
              <path id="Path_208" data-name="Path 208" d="M6.317,6a1.277,1.277,0,0,0,.257-.718c0-.847-.34-1.3-.936-1.244A3.187,3.187,0,0,0,3.567,5.824a4.311,4.311,0,0,0-.526,2.316c.217,2.806,2.762,2.4,4.419.883A7.766,7.766,0,0,0,9.733,5.459c.6-1.938.453-4.226-.318-4.9a2.212,2.212,0,0,0-.681-.4C7-.488,4.283.869,2.252,3.542A12.184,12.184,0,0,0,.144,8.151a3.73,3.73,0,0,0,.24,2.81c.1.148.317.024.477-.27" transform="translate(89.216 13.616) rotate(-39)" fill="none" stroke="#ad7d60" stroke-width="3"/>
              <path id="Path_188" data-name="Path 188" d="M354.021,700.2c-.029-.35.074-1.441.03-2.091,1.716.09,3.267-1.176,4.775-1.777-1.763,1.038-2.685,2.871-4.609,3.868Z" transform="translate(-340.507 -688.546)" fill="#390d15"/>
              <path id="Path_189" data-name="Path 189" d="M402.36,693.491c-1.735,1.152-3.355,2.852-5.2,3.728a17.526,17.526,0,0,1-5.21,1.118,19.5,19.5,0,0,1,2.088-1.743S400.094,694.363,402.36,693.491Z" transform="translate(-365.504 -686.674)" fill="#390d15"/>
            </g>
            <g id="Group_31" data-name="Group 31" transform="translate(44.316 0.206)">
              <g id="Group_30" data-name="Group 30">
                <path id="Path_190" data-name="Path 190" d="M462.591,706.924c-1.151,2.034-5.833.813-7.67.542-3.342-.492-5.591-1.315-7.46-4.2-4.056-6.26-3.065-11.993.037-18.56,2.031-4.3,6.8-12.857,12.373-10.934,4.874,1.682,6.24,5.943,7.665,10.453,1.668,5.283,4.684,11.386,3.707,17.083-1.127,6.573-7.684,4.869-11.866,7.327Z" transform="translate(-444.632 -673.495)" fill="#5e1523"/>
                <path id="Path_191" data-name="Path 191" d="M447.4,735.822c-2.752-1.608-4.2-7.394-1.936-10.209,2.443-3.033,6.919-3.956,10.589-3.956,6.918,0,17.59,3.82,14.786,12.889-.965,3.12-3.125,3.173-5.836,4.01-2.192.676-4.362,2.011-6.725,2.395-3.583.581-10.883-1.919-11.62-5.617Z" transform="translate(-444.342 -705.23)" fill="#fcb387"/>
                <path id="Path_192" data-name="Path 192" d="M480.437,717.5c-1.016-1.661-.856-3.96-2.068-5.536.9-1.629.978-3.539,1.638-5.122.05,1.8.6,3.666.6,5.448,0,.958-.252,1.9-.348,2.849A11.662,11.662,0,0,0,480.437,717.5Z" transform="translate(-466.764 -695.471)" fill="#390d15"/>
                <path id="Path_193" data-name="Path 193" d="M471.942,742.062a.484.484,0,0,1,.059.688,2.311,2.311,0,0,1-2.323.653,3.007,3.007,0,0,1-2.287-1.866,1.784,1.784,0,0,1,.59-1.834c2.121-1.99,6.053-1,7.826.558a3.608,3.608,0,0,1,1.5,3.221,4.664,4.664,0,0,1-3.6,3.489,8.438,8.438,0,0,1-1.373.109,10.793,10.793,0,0,1-8.541-4.234,4.481,4.481,0,0,1-.571-3.939,3.206,3.206,0,0,1,2.161-1.986.493.493,0,0,1,.616.327" transform="translate(-456.631 -715.274)" fill="none" stroke="#ad7d60" stroke-width="3"/>
              </g>
              <path id="Path_194" data-name="Path 194" d="M481.936,684.541c0-1.954-.682-5.792.457-7.314a26.093,26.093,0,0,1,.367,4.058c0,1.38-.732,2.578-.485,3.76-.286.24-.1-.042-.009-.016Z" transform="translate(-468.981 -675.954)" fill="#6b2021"/>
            </g>
          </g>
          <g id="Group_35" data-name="Group 35" transform="translate(909.878 286.374)">
            <g id="Group_34" data-name="Group 34" transform="translate(0 7.817)">
              <g id="Group_33" data-name="Group 33">
                <path id="Path_195" data-name="Path 195" d="M402.954,484.648a15.657,15.657,0,0,1-8.812-11.459,22.1,22.1,0,0,1,2.6-14.523c.8-1.482,2.52-3.085,3.918-2.144a7.06,7.06,0,0,1,.918.927,3.652,3.652,0,0,0,4.682.015,5.9,5.9,0,0,0,1.971-4.546,6,6,0,0,0-2.458-5.217c-1.7-1.073-4.328-.653-5.225,1.146-2.7-3.113-2.94-7.87-1.3-11.651.715-1.649,1.893-2.988,2.731-4.513.915-1.664,1.623-3.069,3.425-3.97a6.944,6.944,0,0,1,6.169.029c1.214.622,2.215,1.592,3.389,2.288a4.128,4.128,0,0,0,3.888.47,4.612,4.612,0,0,0,1.708-1.841,7.666,7.666,0,0,0,1.191-3.245c.26-3.205-2.841-5.948-6.042-6.265-1.3-.129-2.627.043-3.908-.213a3.3,3.3,0,0,1-2.783-2.4,3.34,3.34,0,0,1,1.738-3.069c1.042-.678,2.263-1.034,3.332-1.668,3.793-2.252,2.936-5.547,3.838-9.262a7.15,7.15,0,0,1,3.73-4.756,5.9,5.9,0,0,1,5.929.466c1.038.766,1.91,1.96,3.2,2.058,1.615.122,2.8-1.672,2.8-3.291s-.761-3.126-1.213-4.681c-.74-2.543-.49-5.629,1.511-7.364,1.26-1.093,2.968-1.46,4.538-2.022s3.2-1.518,3.664-3.12c.41,1.575-.8,3.1-2.091,4.1s-2.812,1.869-3.448,3.367c-.9,2.114.346,4.475,1.549,6.431l2.97,4.83a15.906,15.906,0,0,1,1.855,3.707,7.933,7.933,0,0,1-7.905,10.19,44.051,44.051,0,0,0-4.525-.451c-1.515.1-3.167,1.09-3.237,2.607-.071,1.553,1.545,2.69,3.081,2.936,2.517.4,4.85-.226,7.348.521a14.425,14.425,0,0,1,10.347,13.6,10.314,10.314,0,0,1-1.768,6.262,6.582,6.582,0,0,1-5.679,2.808c-.862-.074-1.7-.353-2.566-.386a4.694,4.694,0,0,0-4.639,3.728,6.93,6.93,0,0,0,.542,3.711c.535,1.364,1.439,2.768,2.866,3.1a3.974,3.974,0,0,0,4.522-1.986c.537-1.129.684-2.408,1.191-3.551a6.19,6.19,0,0,1,4.634-3.541,4.133,4.133,0,0,0-2.267,4.239,8.71,8.71,0,0,0,2.2,4.576c1.092,1.327,2.354,2.518,3.321,3.939a17.142,17.142,0,0,1,2.7,7.764,4.97,4.97,0,0,1-1.55,4.13c-.919.764-2.645.819-3.027-.313-.3-.877.437-1.821.254-2.728a1.752,1.752,0,0,0-2.645-.857,2.849,2.849,0,0,0-.936,2.956,8.367,8.367,0,0,0,1.516,2.9l2.1,2.977a8.4,8.4,0,0,1,1.842,3.923,5.63,5.63,0,0,1-1.47,4.012c-1.377,1.629-3.218,2.834-4.689,4.392-.906.959-1.628,2.08-2.543,3.029a10.221,10.221,0,0,1-7.976,3.052,33.062,33.062,0,0,1-4.7-.954,25.85,25.85,0,0,0-9.114-.362,7.712,7.712,0,0,1-3.726,0c-2.007-.742-3.777-1.97-5.844-2.669C408.075,485.958,405.4,485.686,402.954,484.648Z" transform="translate(-389.364 -380.822)" fill="#e8241d"/>
                <path id="Path_196" data-name="Path 196" d="M549.608,562.769a1.194,1.194,0,0,1,.147-1.134c.209-.339.5-.621.706-.963.853-1.418.745-2.9,2.2-4.041-1.616,1.267.686,4.821-.968,6.16C551.159,563.22,550.014,563.565,549.608,562.769Z" transform="translate(-491.965 -496.668)" fill="url(#linear-gradient-2)"/>
                <path id="Path_197" data-name="Path 197" d="M390.725,601.749a3.322,3.322,0,0,0-3.043-1.83,1.576,1.576,0,0,1,1.28-1.662,1.946,1.946,0,0,1,1.95.961,2.563,2.563,0,0,1,.1,2.233" transform="translate(-385.319 -524.079)" fill="url(#linear-gradient-3)"/>
                <path id="Path_198" data-name="Path 198" d="M382.313,568.526a1.389,1.389,0,0,1,1.676.116,1.585,1.585,0,0,1,.2,1.636c-.814,2.191-1.547,4.114-.435,6.438C381.441,575.3,379.175,570.432,382.313,568.526Z" transform="translate(-380.774 -504.358)" fill="url(#linear-gradient-4)"/>
              </g>
            </g>
            <path id="Path_199" data-name="Path 199" d="M529.914,359.742c-.483-.451-.926-1.12-.679-1.734a2.725,2.725,0,0,1,3.273,1.951,4.264,4.264,0,0,1-.506,2.876c-.4.784-1.3,1.286-1.44,2.208a3.009,3.009,0,0,1,.06-1.309c.125-.461.36-.888.474-1.353C531.411,361.1,530.76,360.532,529.914,359.742Z" transform="translate(-478.553 -357.904)" fill="none" stroke="#1a1718" stroke-width="1"/>
            <path id="Path_200" data-name="Path 200" d="M460.314,439.318a6.49,6.49,0,0,1-3.532,2.925,6.217,6.217,0,0,1-2.207.411c-.423-.01-1.594-.533-1.857-.433l2.83-1.084a5.137,5.137,0,0,0,1.381-.7c1.985-1.57,1.53-4.67,2.132-6.831a6.165,6.165,0,0,1,1.885-3.093,4.171,4.171,0,0,1,3.421-.968c1.533.306,2.669,1.563,4.024,2.344a5.562,5.562,0,0,0,3.6.751,3.993,3.993,0,0,0,2.954-2.079c1.331-2.714-1.232-5.976-.442-8.895-.14,2.447,2.012,4.381,2.768,6.712a6.714,6.714,0,0,1-1.958,6.876,7.8,7.8,0,0,1-7.079,1.607c-1.051-.275-2.044-.754-3.105-.989a3.7,3.7,0,0,0-3.113.495C461.125,437.09,460.848,438.3,460.314,439.318Z" transform="translate(-428.179 -399.922)" opacity="0.53" fill="url(#linear-gradient-5)"/>
            <path id="Path_201" data-name="Path 201" d="M471.779,498.54a12.657,12.657,0,0,1-.422,3.993,12.109,12.109,0,0,1-2.14,3.236,33.834,33.834,0,0,0-4.039,7.364c.479-1.211,2.969-2.759,3.985-3.569a20.848,20.848,0,0,1,4.857-3c1.474-.621,2.753-1.395,4.383-1.366a13.568,13.568,0,0,1,5.915,1.48,11.435,11.435,0,0,0,.645-7.088,4.788,4.788,0,0,0-1.843-3.069,4.533,4.533,0,0,0-3.636-.27c-1.205.341-2.327.935-3.53,1.283a1.56,1.56,0,0,1-.777.076c-.863-.2-.865-1.394-.935-2.277a4.636,4.636,0,0,0-2.839-3.786,4.711,4.711,0,0,0-1.676-.2q-.972.013-1.94.1a8.226,8.226,0,0,1-3.817-.138c1.539,1.344,3.6,1.614,5.453,2.323C471.39,494.382,471.754,496.641,471.779,498.54Z" transform="translate(-435.594 -445.808)" fill="url(#linear-gradient-6)"/>
            <path id="Path_202" data-name="Path 202" d="M431.707,588.662a7.5,7.5,0,0,1-8.722,3.739c-1.829-.483-3.3-1.831-5.016-2.615-1.93-.879-4.1-1.019-6.173-1.467-5.411-1.169-7.985-6.5-8.13-11.747-.07-2.534.127-6.131,1.258-8.424.657-1.33,1.822-2.614,3.3-2.628a8.522,8.522,0,0,1,2.109.467,6.313,6.313,0,0,0,7.762-7.16c-.209-1.257-.8-2.437-.924-3.7s.488-3.224,1.836-3.656a13.625,13.625,0,0,0,1.36-.279,2.406,2.406,0,0,0,1.138-1.725,11.241,11.241,0,0,0,.35-2.782c0,1.75,1.768,4.4,3.686,4.239,1.448-.123,2.188-2,2.568-3.235a13.335,13.335,0,0,1,1.477-3.917,9.3,9.3,0,0,1,2.4-2.135c2.177-1.515,4.6-3.047,7.243-2.9a24.09,24.09,0,0,0-5.184,4.152,4.383,4.383,0,0,0-1.106,1.654c-.728,2.386,2.358,4.647,1.771,7.072a4.339,4.339,0,0,1-1.706,2.233,9.566,9.566,0,0,0-2.115,1.914,2.325,2.325,0,0,0-.142,2.671,2.117,2.117,0,0,0,2.283.571A4.338,4.338,0,0,0,435,557.5c1.08-1.336,2.685-4.2,1.908-5.987a12.035,12.035,0,0,1,2.453,3.954,7.959,7.959,0,0,1-1.79,7.467c-1.821,2.183-4.528,3.158-6.338,5.411a7.364,7.364,0,0,0-1.759,3.847c-.253,2.823,1.84,5.249,2.824,7.907A10.593,10.593,0,0,1,431.707,588.662Z" transform="translate(-395.85 -477.05)" fill="url(#linear-gradient-7)"/>
            <path id="Path_203" data-name="Path 203" d="M431.707,588.662a7.5,7.5,0,0,1-8.722,3.739c-1.829-.483-3.3-1.831-5.016-2.615-1.93-.879-4.1-1.019-6.173-1.467-5.411-1.169-7.985-6.5-8.13-11.747-.07-2.534.127-6.131,1.258-8.424.657-1.33,1.822-2.614,3.3-2.628a8.522,8.522,0,0,1,2.109.467,6.313,6.313,0,0,0,7.762-7.16c-.209-1.257-.8-2.437-.924-3.7s.488-3.224,1.836-3.656a13.625,13.625,0,0,0,1.36-.279,2.406,2.406,0,0,0,1.138-1.725,11.241,11.241,0,0,0,.35-2.782c0,1.75,1.768,4.4,3.686,4.239,1.448-.123,2.188-2,2.568-3.235a13.335,13.335,0,0,1,1.477-3.917,9.3,9.3,0,0,1,2.4-2.135c2.177-1.515,4.6-3.047,7.243-2.9a24.09,24.09,0,0,0-5.184,4.152,4.383,4.383,0,0,0-1.106,1.654c-.728,2.386,2.358,4.647,1.771,7.072a4.339,4.339,0,0,1-1.706,2.233,9.566,9.566,0,0,0-2.115,1.914,2.325,2.325,0,0,0-.142,2.671,2.117,2.117,0,0,0,2.283.571A4.338,4.338,0,0,0,435,557.5c1.08-1.336,2.685-4.2,1.908-5.987a12.035,12.035,0,0,1,2.453,3.954,7.959,7.959,0,0,1-1.79,7.467c-1.821,2.183-4.528,3.158-6.338,5.411a7.364,7.364,0,0,0-1.759,3.847c-.253,2.823,1.84,5.249,2.824,7.907A10.593,10.593,0,0,1,431.707,588.662Z" transform="translate(-395.85 -477.05)" opacity="0.65" fill="url(#linear-gradient-8)"/>
            <path id="Path_204" data-name="Path 204" d="M428.754,542.574c.227.945.485,2.575.131,3.2-1.414-3.013-5.363-3.271-8.212-2.417a6.443,6.443,0,0,0-4.455,4.249,19.345,19.345,0,0,1-.388-3.08,4.564,4.564,0,0,1,.7-3.087,11.917,11.917,0,0,1,1.7-1.408c1.107-.952,1.749-2.437,3.045-3.109a3.714,3.714,0,0,1,2.954-.1,6.213,6.213,0,0,1,2.44,1.766,9.452,9.452,0,0,1,1.977,3.584C428.679,542.278,428.716,542.417,428.754,542.574Z" transform="translate(-403.866 -475.626)" fill="url(#linear-gradient-9)"/>
            <path id="Path_205" data-name="Path 205" d="M507.713,590.792c-1.785.12-3.879,1.357-4.454,2.885a5.408,5.408,0,0,0,1.043,5.21c.86,1.04,2.036,1.8,2.8,2.91a6.88,6.88,0,0,1,.271,6.531,20.3,20.3,0,0,1-4.014,5.479,15.231,15.231,0,0,1-4.785,3.942c-3.774,1.659-8.076.047-12.1-.835a6.119,6.119,0,0,0,3.906-4.931,9.9,9.9,0,0,0-1.424-6.341c-1.047-1.82-2.536-3.537-2.657-5.632-.138-2.39,1.541-4.455,3.122-6.252a16.393,16.393,0,0,1,3.752-3.461,28.827,28.827,0,0,1,3.657-1.583,10.928,10.928,0,0,0,5.746-4.944,7.949,7.949,0,0,0,.591-3.287c.1-1.444.975-2.284,1.258-3.523a7.224,7.224,0,0,0-.253,3c.7,3.484,3.851,5.212,6.022,7.586a8.732,8.732,0,0,1,2.053,3.9,8.911,8.911,0,0,1-.039,2.993c-.141.607-1.341,2.543-1.714.917a7.967,7.967,0,0,1-.019-1.958A2.334,2.334,0,0,0,507.713,590.792Z" transform="translate(-450.303 -502.247)" fill="url(#linear-gradient-10)"/>
          </g>
        </g>
      </g>
    </g>
  </g>
</svg>
