<svg xmlns="http://www.w3.org/2000/svg" width="51.912" height="43.319" viewBox="0 0 51.912 43.319">
    <g data-name="Group 323">
        <path data-name="Path 2265" d="M22.65-31.406a9.817 9.817 0 0 0-10.173-10.146A9.817 9.817 0 0 0 2.52-31.46a9.937 9.937 0 0 0 10.092 10.2A10.028 10.028 0 0 0 22.65-31.406zm-2.8-.108a7.218 7.218 0 0 1-7.238 7.614 7.412 7.412 0 0 1-7.293-7.56c0-4.306 2.933-7.454 7.185-7.454a7.109 7.109 0 0 1 7.347 7.4z" transform="translate(-2.461 58.664)" style="fill:#ffd62c"/>
        <path data-name="Path 2264" d="M2.741-38.13h2.636v4.33h2.478v2.13H5.377v10.127a1.1 1.1 0 0 0 .551 1.087 2.34 2.34 0 0 0 1.014.159q.188 0 .406-.007t.507-.036v2.057a5.821 5.821 0 0 1-.934.188 8.884 8.884 0 0 1-1.05.058 2.831 2.831 0 0 1-2.477-.934 4.153 4.153 0 0 1-.653-2.429v-10.269H.64V-33.8h2.1zm17.413 4.33h2.883q-.551 1.492-2.448 6.809-1.42 4-2.376 6.519a44.074 44.074 0 0 1-3.187 7.244 3.643 3.643 0 0 1-3.187 1.3 6.253 6.253 0 0 1-.847-.043 6.693 6.693 0 0 1-.732-.159v-2.37a9 9 0 0 0 .985.232 3.845 3.845 0 0 0 .536.043 1.877 1.877 0 0 0 1.065-.239 2.205 2.205 0 0 0 .572-.587q.072-.116.522-1.188t.652-1.594L8.854-33.8h2.956l4.158 12.633z" transform="translate(28.774 55.242)" style="fill:#fff"/>
        <path data-name="Path 2266" d="M8.54-10.99a3.666 3.666 0 0 0-3.86-3.85A3.733 3.733 0 0 0 .8-10.99a3.778 3.778 0 0 0 3.86 3.911 3.777 3.777 0 0 0 3.88-3.911zm-1.7 0a2.3 2.3 0 0 1-2.18 2.47 2.336 2.336 0 0 1-2.16-2.47 2.3 2.3 0 0 1 2.18-2.41 2.231 2.231 0 0 1 2.162 2.41z" transform="translate(19.089 31.952)" style="fill:#ffd62c"/>
        <path data-name="Union 1" d="M18.418 11.321A4.25 4.25 0 0 1 16.932 9.6a5.6 5.6 0 0 1-.54-2.5 5.322 5.322 0 0 1 .576-2.5 4.608 4.608 0 0 1 1.558-1.756 3.915 3.915 0 0 1 2.206-.644 3.481 3.481 0 0 1 1.738.441 3.174 3.174 0 0 1 1.23 1.25l.036-1.4h2.378v9.168H23.74l-.036-1.4a3.3 3.3 0 0 1-3.116 1.693 3.861 3.861 0 0 1-2.17-.631zm1.161-6.151a2.7 2.7 0 0 0-.685 1.909 2.672 2.672 0 0 0 .685 1.891 2.436 2.436 0 0 0 3.495 0 2.673 2.673 0 0 0 .684-1.891 2.7 2.7 0 0 0-.684-1.909 2.436 2.436 0 0 0-3.495 0zm-16.986 5.9a3.822 3.822 0 0 1-.81-2.675V4.521H0V2.486h1.783V0h2.486v2.486h2.864v2.035H4.269v3.4a2.282 2.282 0 0 0 .333 1.4 1.327 1.327 0 0 0 1.108.423 3.162 3.162 0 0 0 .82-.108 5.12 5.12 0 0 0 .8-.288L7.6 11.4a3.757 3.757 0 0 1-1.135.405 7.161 7.161 0 0 1-1.423.135 3.185 3.185 0 0 1-2.448-.871zm35.79-4.091a4.583 4.583 0 0 1 4.661-4.717c2.684 0 4.512 2.013 4.512 4.959v.522h-6.693a2.426 2.426 0 0 0 2.591 2.087 3.682 3.682 0 0 0 2.4-.895l1.046 1.529a5.611 5.611 0 0 1-3.71 1.249 4.56 4.56 0 0 1-4.806-4.735zm2.442-.839h4.437a2.086 2.086 0 0 0-2.218-1.995 2.164 2.164 0 0 0-2.218 1.994zm8.6 5.515V0h2.486v11.654zm-18.139 0-3.547-9.169H30.5l2.121 6.754 2.215-6.755h2.576l-3.531 9.168zm-21.885 0V2.486h2.4l.018 1.819a3.044 3.044 0 0 1 .981-1.468 2.43 2.43 0 0 1 1.54-.513 3.272 3.272 0 0 1 .585.054 1.812 1.812 0 0 1 .477.144l-.216 2.36a3.99 3.99 0 0 0-.558-.162 2.755 2.755 0 0 0-.594-.072 1.879 1.879 0 0 0-1.585.729 3.4 3.4 0 0 0-.558 2.1v4.179z" style="fill:#fff"/>
    </g>
</svg>
