<svg xmlns="http://www.w3.org/2000/svg" width="107.427" height="89.027" viewBox="0 0 107.427 89.027">
  <g id="Group_23" data-name="Group 23" transform="translate(-897.863 -322.113)">
    <path id="Path_139" data-name="Path 139" d="M20.058-25.459H.228v2.3H8.846V-.892h2.575v-22.27h8.637Zm5.63,9.848V-19.2H23.322v18.3h2.471v-9.326c0-4.315,2.331-6.751,6.159-6.751.174,0,.383.035.592.035v-2.4C29.168-19.335,26.836-18.047,25.688-15.612ZM51.055-19.2v3.48A7.994,7.994,0,0,0,44.1-19.335a8.855,8.855,0,0,0-9.117,9.291c0,5.533,3.9,9.326,9.117,9.326a7.929,7.929,0,0,0,7.064-3.793V-.892h2.366V-19.2ZM44.3-2.911c-3.9,0-6.82-2.853-6.82-7.133s2.923-7.133,6.82-7.133c3.862,0,6.785,2.853,6.785,7.133S48.167-2.911,44.3-2.911ZM73.36-19.2,66.435-3.607,59.58-19.2H57.005l8.108,18.3h2.54L75.8-19.2ZM86.583-2.911a6.783,6.783,0,0,1-6.89-4.767L94.726-10.6a8.615,8.615,0,0,0-8.769-8.734c-5.254,0-9.047,3.862-9.047,9.291S80.841-.718,86.548-.718a8.936,8.936,0,0,0,7.029-2.993l-1.392-1.6A7.115,7.115,0,0,1,86.583-2.911Zm-.626-14.3a6.207,6.207,0,0,1,6.3,5.254L79.345-9.453a5.388,5.388,0,0,1-.035-.766C79.31-14.359,82.059-17.212,85.957-17.212ZM104.921-.718a6.966,6.966,0,0,0,2.227-.383l-.174-2.053a4.324,4.324,0,0,1-1.67.313c-2.053,0-3.062-1.183-3.062-3.341v-20.53H99.771V-5.973C99.771-2.7,101.581-.718,104.921-.718Z" transform="translate(897.635 348.825)"/>
    <text id="O_" data-name="O " transform="translate(897.863 398.355)" fill="#ffbf2e" font-size="49" font-family="Muli-Regular, Muli"><tspan x="0" y="0">O </tspan></text>
    <text id="ty" transform="translate(951.289 398.141)" font-size="50" font-family="MontserratAlternates-Regular, Montserrat Alternates"><tspan x="0" y="0">ty</tspan></text>
    <text id="O" transform="translate(934.505 374.643)" fill="#ffbf2e" font-size="17" font-family="Helvetica-Bold, Helvetica" font-weight="700"><tspan x="0" y="0">O</tspan></text>
  </g>
</svg>
