<svg xmlns="http://www.w3.org/2000/svg" width="12.484" height="13.132" viewBox="0 0 12.484 13.132">
    <path data-name="Path 2071" d="m225.894 349.632-6.134.9a2.8 2.8 0 0 0-.643.17 2.152 2.152 0 0 0-1.423 1.877.918.918 0 0 0 .915.915h8.3a.914.914 0 0 0 .915-.915v-1.007a1.864 1.864 0 0 0-1.928-1.937zm-6.779 2.989a.164.164 0 1 1 0 .018z" transform="translate(-215.338 -340.36)" style="fill:#696969;fill-rule:evenodd"/>
    <path data-name="Path 2072" d="M171.217 201.149 170 196.7c-.2-.723-.631-1.279-1.366-1.121l-1.085.23a.257.257 0 0 0-.2.3l1.369 6.45a3.485 3.485 0 0 1 2.5-1.411z" transform="translate(-166.708 -191.557)" style="fill:#696969;fill-rule:evenodd"/>
    <path data-name="Path 2073" d="M151.115 79.915c-.209-1.106-.84-1.494-2.221-1.336a.212.212 0 0 0-.185.236l.377 3.073a.212.212 0 0 0 .236.185c1.68-.206 2.122-.421 1.793-2.158z" transform="translate(-148.707 -78.545)" style="fill:#696969;fill-rule:evenodd"/>
</svg>
