<svg xmlns="http://www.w3.org/2000/svg" width="580.683" height="453.661" viewBox="0 0 580.683 453.661">
    <defs>
        <style>
            .cls-2{fill:#135846}.cls-10,.cls-11,.cls-14,.cls-16,.cls-2,.cls-21,.cls-25,.cls-26,.cls-27,.cls-30,.cls-7,.cls-8,.cls-9{fill-rule:evenodd}.cls-7{fill:#21bfad;opacity:.181}.cls-8{fill:#082920}.cls-9{fill:#fff}.cls-10{fill:#b4d5f6}.cls-11{fill:#0b766b}.cls-14{fill:#f4d285}.cls-15{fill:#434343}.cls-16{fill:#b76416}.cls-20,.cls-21{fill:#faedcd}.cls-25{fill:#7c4732}.cls-26{fill:#573527}.cls-27{fill:#caa286}.cls-28{fill:#8e5c47}.cls-30{fill:#c2651c}.cls-32{fill:#7b4e3a}
        </style>
    </defs>
    <g id="Group_37" data-name="Group 37" transform="translate(-679.317 -153.409)" style="isolation:isolate">
        <path id="Path_217" data-name="Path 217" class="cls-2" d="M261.923 587.15h70.166l-21.622-46.765 11.866 5.715-19.294-54.054 5.873 3.715-13.263-43.061-13.817 45.463 5.342-6.119-16.3 53.769 10.963-5.43-19.914 46.767z" transform="translate(647.803 5.871)"/>
        <path id="Path_218" data-name="Path 218" class="cls-2" d="M194.271 591.635H295.7l-19.742-42.7 10.834 5.218-17.619-49.353 5.361 3.392-12.108-39.314-12.615 41.512 4.877-5.587-6.644 21.909-12.286-38.982 4.984 1.548-13.116-48.226-13.665 50.918 4.618-4.366-15.46 57.736 9.975-3.774-18.823 50.07z" transform="translate(621.762 1.386)"/>
        <path id="Path_219" data-name="Path 219" d="M249.388 482.945a49.154 49.154 0 0 1 23.054 92.564h-46.109a49.154 49.154 0 0 1 23.055-92.564z" transform="translate(624.058 17.512)" style="fill:#5ad07a;opacity:.215;fill-rule:evenodd"/>
        <path id="Path_220" data-name="Path 220" d="M250.782 482.965a48.9 48.9 0 0 1 20.017 4.951l1.277 4.144-5.362-3.392 17.616 49.354-10.83-5.222 13.953 30.179a49.358 49.358 0 0 1-15.174 12.521h-46.108a49.3 49.3 0 0 1-23.724-28.29l8.188-21.78-9.974 3.774 5.642-21.073a49.25 49.25 0 0 1 31.03-23.742l8.253 26.188 6.645-21.91-4.878 5.587 3.43-11.29zm46.865 40.665a49.473 49.473 0 0 1 .727 8.458v.137l-3.921 1.942 3.2-10.537z" transform="translate(624.221 17.52)" style="fill:rgba(3,175,157,.51);fill-rule:evenodd"/>
        <path id="Path_221" data-name="Path 221" d="M244.993 494.362a33.338 33.338 0 1 1-33.338 33.338 33.337 33.337 0 0 1 33.338-33.338z" transform="translate(628.453 21.907)" style="fill:#a1d1fe;fill-rule:evenodd"/>
        <path id="Path_222" data-name="Path 222" d="M244.993 494.362a33.264 33.264 0 0 1 25.192 11.5l8.131 22.782a33.326 33.326 0 0 1-.346 3.964l-8.707-4.194 6.067 13.122a33.342 33.342 0 1 1-37.464-46.411l3.486 11.063 3.587-11.827z" transform="translate(628.453 21.907)" style="fill:#009182;fill-rule:evenodd"/>
        <path id="Path_223" data-name="Path 223" class="cls-2" d="M332.085 595.465h85.78L391.431 538.3l14.507 6.987L382.35 479.2l7.179 4.542-16.213-52.642-16.891 55.58 6.53-7.48-19.932 65.733 13.4-6.638-24.34 57.17z" transform="translate(674.812 -2.444)"/>
        <path id="Path_224" data-name="Path 224" class="cls-7" d="M416.614 254.19a33.018 33.018 0 1 1-33.014 33.018 33.018 33.018 0 0 1 33.018-33.018z" transform="translate(693.298 -28.346)"/>
        <path id="Path_225" data-name="Path 225" class="cls-2" d="M189.453 583.9h-64.064l19.742-42.7-10.831 5.221 17.616-49.353-5.362 3.392 12.108-39.314 12.615 41.509-4.877-5.587 14.887 49.093-10.012-4.961 18.178 42.7z" transform="translate(595.246 9.121)"/>
        <path id="Path_226" data-name="Path 226" class="cls-2" d="M368.132 583.9H432.2l-19.742-42.7 10.834 5.218-17.616-49.353 5.361 3.392-12.108-39.314-12.619 41.511 4.878-5.587L376.3 546.16l10.01-4.958-18.178 42.7z" transform="translate(688.687 9.121)"/>
        <path id="Path_227" data-name="Path 227" class="cls-2" d="M485.232 583.9h-64.063l19.742-42.7-10.834 5.218 17.616-49.353-5.361 3.392 12.108-39.314 12.616 41.509-4.877-5.587 14.886 49.093-10.01-4.958 18.178 42.7z" transform="translate(709.104 9.121)"/>
        <path id="Path_228" data-name="Path 228" class="cls-8" d="M441.6 583.9h-20.431l19.742-42.7-10.834 5.218 17.616-49.353-5.361 3.392 12.108-39.314-5.388 35.062 2.493-1.577-8.754 45.672 5.764-2.776L441.6 583.9z" transform="translate(709.104 9.121)"/>
        <path id="Path_229" data-name="Path 229" class="cls-9" d="M416.614 254.19q.418 0 .832.011a27.2 27.2 0 1 0 29.929 45.029 33.022 33.022 0 1 1-30.761-45.04z" transform="translate(693.298 -28.346)"/>
        <path id="Path_230" data-name="Path 230" class="cls-8" d="M145.817 583.9h-20.428l19.742-42.7-10.831 5.221 17.616-49.353-5.362 3.392 12.108-39.314-5.388 35.062 2.492-1.577-8.755 45.669 5.764-2.776-6.958 46.376z" transform="translate(595.246 9.121)"/>
        <path id="Path_231" data-name="Path 231" class="cls-2" d="M511.767 591.635h-69.394l20.419-50.012-10.77 4.036 18.258-57.929-4.984 1.548 13.116-48.226 13.665 50.919-4.617-4.366 15.459 57.735-9.974-3.774 18.823 50.07z" transform="translate(717.266 1.386)"/>
        <path id="Path_232" data-name="Path 232" class="cls-8" d="M464.164 591.635h-21.791l20.419-50.012-10.77 4.036 18.258-57.929-4.984 1.548 13.116-48.226-6.91 46.3 3.287-1.021-8.9 54.131 5.475-2.052-7.2 53.227z" transform="translate(717.266 1.386)"/>
        <path id="Path_233" data-name="Path 233" class="cls-10" d="M196.688 240.958a6.184 6.184 0 1 1-6.184 6.184 6.183 6.183 0 0 1 6.184-6.184z" transform="translate(618.969 -33.44)"/>
        <path id="Path_234" data-name="Path 234" class="cls-10" d="M226.964 286.779a3.5 3.5 0 1 1-3.5 3.5 3.5 3.5 0 0 1 3.5-3.5z" transform="translate(631.657 -15.802)"/>
        <path id="Path_235" data-name="Path 235" class="cls-7" d="M384.937 201.888a6.184 6.184 0 1 1-6.184 6.185 6.185 6.185 0 0 1 6.184-6.185z" transform="translate(691.434 -48.479)"/>
        <path id="Path_236" data-name="Path 236" class="cls-10" d="M239.374 217.172a4.57 4.57 0 1 1-4.57 4.57 4.57 4.57 0 0 1 4.57-4.57z" transform="translate(636.022 -42.596)"/>
        <path id="Path_237" data-name="Path 237" class="cls-9" d="M448.693 235.9a3.5 3.5 0 1 1-3.5 3.5 3.5 3.5 0 0 1 3.5-3.5z" transform="translate(717.009 -35.387)"/>
        <path id="Path_238" data-name="Path 238" class="cls-9" d="M168.709 203.825a3.5 3.5 0 1 1-3.5 3.5 3.5 3.5 0 0 1 3.5-3.5z" transform="translate(609.231 -47.734)"/>
        <path id="Path_239" data-name="Path 239" class="cls-10" d="M153.087 268.213a4.57 4.57 0 1 1-4.569 4.57 4.571 4.571 0 0 1 4.569-4.57z" transform="translate(602.807 -22.949)"/>
        <path id="Path_240" data-name="Path 240" class="cls-10" d="M466.841 296.815a3.5 3.5 0 1 1-3.5 3.5 3.5 3.5 0 0 1 3.5-3.5z" transform="translate(723.994 -11.938)"/>
        <path id="Path_241" data-name="Path 241" class="cls-9" d="M254.92 260.713a3.5 3.5 0 1 1-3.5 3.5 3.5 3.5 0 0 1 3.5-3.5z" transform="translate(642.417 -25.835)"/>
        <path id="Path_242" data-name="Path 242" class="cls-10" d="M345.922 236.655a3.5 3.5 0 1 1-3.5 3.5 3.5 3.5 0 0 1 3.5-3.5z" transform="translate(677.448 -35.096)"/>
        <path id="Path_243" data-name="Path 243" class="cls-2" d="m364.519 361.771-8.577-13.111V327.2l-5.67 9v5.252l-7.085 19.557-1.216 12.157 8.3-4.2v6.9L326.339 406.3l5.232 10.47 18.7-6.339v2.022l-39.836 40.978-4.973 25.066 44.81-13.744v4.928l-47.305 27.9 8.695 21.375 38.611-11.433V635.46h5.67V508.831l42.008 12.44 9.963-18.555-51.972-31.616v-4.551l31.435 9.965L397 460.592l-41.055-43.163v-6.308l20.18 6.95-2.7-16.485-17.475-21.738V368.73l6.224.763 2.353-7.722z" transform="translate(663.603 -42.439)"/>
        <path id="Path_244" data-name="Path 244" class="cls-8" d="M350.272 361.388v-23.9l-7.085 19.556-1.216 12.157 8.3-4.2v6.9l-23.933 30.428 5.232 10.469 18.7-6.339v2.022l-39.836 40.978-4.974 25.066 44.81-13.744v4.928l-47.3 27.9 8.694 21.375 38.611-11.434v58.652l5.669 2.116v-59.447l24.021 7.113-2.572-6.993-21.953-15.535-3.474-24.738 3.976 2.419v-4.55l15.718 4.982-16.22-22.064-8.3 3.7 5.3-39.427 3.509 3.689v-6.307l7.707 2.654-15.852-15.1 3.7-24.364 4.447 5.532V364.77l6.224.762-11.893-4.144z" transform="translate(663.603 -38.478)"/>
        <path id="Path_245" data-name="Path 245" class="cls-11" d="m348.653 400.167 30.759 32.338-7.583 4.168-23.176-31.681v-4.826z" transform="translate(681.189 -14.352)"/>
        <path id="Path_246" data-name="Path 246" class="cls-11" d="m364.918 444.775 20.845 12.682-4.981 9.277-20.275-17.63 4.411-4.33z" transform="translate(685.753 2.819)"/>
        <path id="Path_247" data-name="Path 247" d="m343.918 368.208 14.143 17.592-4.937 3.553-10.264-16.33 1.058-4.815z" transform="translate(678.959 -26.655)" style="fill:#14a596;fill-rule:evenodd"/>
        <path id="Path_248" data-name="Path 248" d="M241.164 504.309a19.562 19.562 0 1 1-19.564 19.562 19.562 19.562 0 0 1 19.562-19.562z" transform="translate(632.282 25.736)" style="fill:#12b1a0;fill-rule:evenodd"/>
        <path id="Path_249" data-name="Path 249" class="cls-14" d="M236.321 492.819a2.138 2.138 0 1 1-2.138 2.137 2.137 2.137 0 0 1 2.138-2.137z" transform="translate(637.125 21.313)"/>
        <path id="Path_250" data-name="Path 250" class="cls-14" d="M230.421 498.192a1.633 1.633 0 1 1-1.634 1.633 1.632 1.632 0 0 1 1.634-1.633z" transform="translate(635.048 23.381)"/>
        <path id="Path_251" data-name="Path 251" class="cls-9" d="M227.3 490.441a1.447 1.447 0 1 1-1.447 1.449 1.448 1.448 0 0 1 1.447-1.449z" transform="translate(633.918 20.398)"/>
        <path id="Path_252" data-name="Path 252" class="cls-14" d="M245.374 506.179a2 2 0 1 1-2 2 2 2 0 0 1 2-2z" transform="translate(640.663 26.456)"/>
        <path id="Path_253" data-name="Path 253" class="cls-9" d="M236.031 493.572a1.094 1.094 0 1 1-1.1 1.094 1.095 1.095 0 0 1 1.1-1.094z" transform="translate(637.415 21.603)"/>
        <path id="Path_254" data-name="Path 254" class="cls-14" d="M226.176 506.83a2.677 2.677 0 1 1-2.677 2.677 2.678 2.678 0 0 1 2.677-2.677z" transform="translate(633.013 26.706)"/>
        <path id="Path_255" data-name="Path 255" class="cls-9" d="M225.84 507.7a1.467 1.467 0 1 1-1.467 1.467 1.466 1.466 0 0 1 1.467-1.467z" transform="translate(633.349 27.043)"/>
        <path id="Path_256" data-name="Path 256" class="cls-9" d="M242.283 500.9a1.147 1.147 0 1 1-1.147 1.147 1.148 1.148 0 0 1 1.147-1.147z" transform="translate(639.802 24.425)"/>
        <path id="Path_257" data-name="Path 257" class="cls-9" d="M239.494 487.225a1.147 1.147 0 1 1-1.147 1.147 1.147 1.147 0 0 1 1.147-1.147z" transform="translate(638.728 19.16)"/>
        <path id="Path_258" data-name="Path 258" class="cls-9" d="M232.293 476.427a1.147 1.147 0 1 1-1.148 1.147 1.147 1.147 0 0 1 1.148-1.147z" transform="translate(635.956 15.003)"/>
        <path id="Path_259" data-name="Path 259" class="cls-2" d="m241.354 533.133-42.7-29.208V499.7l25.811 9.2 7.912-14.72-33.723-39.863v-5.867l16.553 6.41-2.224-15.244-14.329-20.04V392.19l-6.228-8.714-4.3 24.267 4.3 5.678v4.59l-18.165 25.962 4.3 9.681 13.86-5.281v3.05q-15.62 18.069-31.244 36.134l-4.09 23.177 35.334-12.183v5.041l-37.386 24.792 1.757 21.561 35.629-11.862V613.8h6.228v-75l34.507 11.488 8.193-17.159z" transform="translate(606.66 -20.777)"/>
        <path id="Path_260" data-name="Path 260" class="cls-11" d="m186.531 409.542 14.329 20.04.962 6.593-14.471-13-.821-13.632z" transform="translate(618.782 -10.744)"/>
        <path id="Path_261" data-name="Path 261" class="cls-8" d="m195.339 492.06 3.314 2.266V490.1l20.03 7.138-20.487-20.3-5.771 2.223 1.91-39.546 4.318 5.1v-5.868l5.911 2.289-12.139-11.718v-21.006l-18.165 25.962 4.3 9.681 13.86-5.281v3.05q-15.62 18.069-31.244 36.134l-4.09 23.177 35.334-12.183v5.041l-37.386 24.792 1.757 21.561 35.629-11.862v38.2l6.228-3.835v-33.644l34.507 11.488-35.682-30.024-2.14-18.609z" transform="translate(606.66 -11.178)"/>
        <path id="Path_262" data-name="Path 262" class="cls-11" d="m197.9 446.52 19.791 23.393L213.9 472l-20.7-15.135 4.7-10.345z" transform="translate(621.35 3.491)"/>
        <path id="Path_263" data-name="Path 263" class="cls-15" d="M290.632 528.412a1.694 1.694 0 1 1 2.788 1.924l-19.367 27.952h-1.7v-3.5l18.278-26.38z" transform="translate(651.819 34.733)"/>
        <path id="Path_264" data-name="Path 264" class="cls-16" d="m334.616 480.319 3.519 5.079a1.694 1.694 0 0 1-.021 1.954L295.5 548.859a1.689 1.689 0 0 1-1.395.731v.006h-7.073a1.7 1.7 0 0 1-1.316-2.774l46.095-66.53a1.694 1.694 0 0 1 2.356-.432 1.664 1.664 0 0 1 .45.458z" transform="translate(656.815 16.209)"/>
        <path id="Path_265" data-name="Path 265" d="m336.188 484 42.112 60.78h6.189a1.7 1.7 0 0 1 1.7 1.7v27.214a1.7 1.7 0 0 1-1.7 1.7h-92.351a1.7 1.7 0 0 1-1.7-1.7v-27.215a1.7 1.7 0 0 1 .384-1.076l42.559-61.425a1.694 1.694 0 0 1 2.806.026z" transform="translate(658.78 17.628)" style="fill:#d48620;fill-rule:evenodd"/>
        <path id="Path_266" data-name="Path 266" class="cls-15" d="M415.037 530.336a1.694 1.694 0 1 1 2.788-1.924l18.277 26.38v3.5h-1.7l-19.367-27.952z" transform="translate(706.628 34.733)"/>
        <path id="Path_267" data-name="Path 267" d="M428.938 554.035v-13.607a1.7 1.7 0 0 1 1.7-1.7h2.22a1.7 1.7 0 0 1 0 3.4h-.521v11.908z" transform="translate(712.094 38.985)"/>
        <path id="Path_268" data-name="Path 268" class="cls-16" d="M433.235 530.126v25.522a1.7 1.7 0 0 1-1.7 1.7h-72.717a1.7 1.7 0 0 1-1.7-1.7v-25.522z" transform="translate(684.449 35.674)"/>
        <path id="Path_269" data-name="Path 269" d="M433.235 530.126v11.915a1.7 1.7 0 0 1-1.7 1.7h-72.717a1.7 1.7 0 0 1-1.7-1.7v-11.915z" transform="translate(684.449 35.674)" style="fill:#80470f;fill-rule:evenodd"/>
        <path id="Path_270" data-name="Path 270" class="cls-15" d="M352.315 530.336a1.694 1.694 0 1 1 2.788-1.924l18.278 26.38v3.5h-1.7l-19.367-27.952z" transform="translate(682.484 34.733)"/>
        <path id="Path_271" data-name="Path 271" d="M365.151 548.861zm-44.782-69.3h86.866a1.7 1.7 0 0 1 1.471.848l46.1 66.532a1.695 1.695 0 0 1-1.461 2.655h-86.8a1.694 1.694 0 0 1-1.395-.731l-46.174-66.642a1.693 1.693 0 0 1 1.393-2.656v-.006z" transform="translate(669.65 16.208)" style="fill:#eba843;fill-rule:evenodd"/>
        <path id="Path_272" data-name="Path 272" d="M366.216 554.035v-13.607a1.7 1.7 0 0 1 1.7-1.7h2.219a1.7 1.7 0 1 1 0 3.4h-.519v11.908z" transform="translate(687.95 38.985)"/>
        <path id="Path_273" data-name="Path 273" d="M275.142 554.035v-13.607a1.7 1.7 0 0 0-1.7-1.7h-2.219a1.7 1.7 0 1 0 0 3.4h.519v11.908z" transform="translate(650.73 38.985)"/>
        <path id="Path_274" data-name="Path 274" class="cls-20" d="M419.518 539.877a4.048 4.048 0 0 0 3.7 1.774h1.36a1.664 1.664 0 0 0 .964-.3 1.7 1.7 0 0 0 .429-2.364l-25.93-37.422a3.9 3.9 0 0 0-2.853-1.385h-1.938a1.7 1.7 0 0 0-1.4 2.666l25.659 37.029z" transform="translate(698.474 24.148)"/>
        <path id="Path_275" data-name="Path 275" class="cls-20" d="M391.582 499.561a4.721 4.721 0 0 0 4.016 1.929h1.154a1.675 1.675 0 0 0 .964-.3 1.7 1.7 0 0 0 .429-2.364l-5.128-7.4a3.612 3.612 0 0 0-3.149-1.435h-1.676a1.7 1.7 0 0 0-1.4 2.666l4.786 6.908z" transform="translate(695.755 20.223)"/>
        <path id="Path_276" data-name="Path 276" class="cls-14" d="M384.839 479.557a30.69 30.69 0 0 1-32.7 47.362l-22.9-33.06a30.5 30.5 0 0 1 5.394-14.3z" transform="translate(673.716 16.208)"/>
        <path id="Path_277" data-name="Path 277" class="cls-21" d="M355.539 481.17a15.4 15.4 0 1 1-15.4 15.4 15.4 15.4 0 0 1 15.4-15.4z" transform="translate(677.912 16.829)"/>
        <path id="Path_278" data-name="Path 278" d="M301.013 572.122zm34.961-77.684v78.221a1.7 1.7 0 0 1-1.7 1.7l-.15-.007h-31.505a1.692 1.692 0 0 1-1.692-1.692 1.725 1.725 0 0 1 .086-.537l29.069-86.189 5.893 8.5z" transform="translate(662.818 18.662)" style="fill:#f0c167;fill-rule:evenodd"/>
        <path id="Path_279" data-name="Path 279" class="cls-14" d="M333.184 562.956a76.812 76.812 0 0 1-25.009-20.342l19.116-56.681 5.893 8.5v68.518z" transform="translate(665.608 18.662)"/>
        <path id="Path_280" data-name="Path 280" class="cls-21" d="M329.536 527.057a47.264 47.264 0 0 1-11.884-23.357l5.991-17.767 5.893 8.5v32.619z" transform="translate(669.256 18.663)"/>
        <path id="Path_281" data-name="Path 281" class="cls-2" d="m369.859 502.745 42.7-29.208v-4.221l-25.81 9.2-7.914-14.719 33.723-39.863v-5.868l-16.553 6.41 2.224-15.244 14.329-20.04V361.8l6.229-8.714 4.3 24.267-4.3 5.677v4.59l18.162 25.963-4.3 9.681-13.859-5.282v3.05q15.618 18.069 31.243 36.134l4.09 23.178-35.333-12.185v5.041l37.385 24.792-1.758 21.562-35.628-11.862V625.5h-6.229V508.415L378.054 519.9l-8.195-17.158z" transform="translate(689.352 -32.475)"/>
        <path id="Path_282" data-name="Path 282" class="cls-8" d="m369.859 492.711 42.7-29.208v-4.221l-25.81 9.2-7.914-14.719L412.56 413.9v-5.868l-16.553 6.41 2.224-15.244 14.329-20.04v13.84l10.055 16.414-3.825-1.458V411l-1.911-2.208-4.319 38.548 17.68 9.563 3.255 6.3-14.705-5.072v5.041l-2.928-1.925 2.928 22.43 24.083 22-24.083-8.017v34.233l-6.229 2.645v-36.157l-34.506 11.488-8.195-17.158z" transform="translate(689.352 -22.442)"/>
        <path id="Path_283" data-name="Path 283" d="M232.871 400.32c-2.331 1.494-8.39 27.958 2.324 48.937s.04 50.4 2.76 48.657 15.329-32.409 4.615-53.388-7.368-45.7-9.7-44.206z" transform="translate(635.148 -14.318)" style="fill:#dff0ff;fill-rule:evenodd"/>
        <path id="Path_284" data-name="Path 284" d="M235.127 369.482c-1.447.928-5.164 17.334 1.489 30.362s-.021 31.329 1.667 30.246 9.436-20.072 2.782-33.1-4.491-28.436-5.939-27.508z" transform="translate(636.585 -26.179)" style="fill:#c2e3fe;fill-rule:evenodd"/>
        <path id="Path_285" data-name="Path 285" class="cls-25" d="M256.647 532a6.583 6.583 0 1 1 0 13.165h-32.736V532h32.736z" transform="translate(633.171 36.396)"/>
        <path id="Path_286" data-name="Path 286" class="cls-26" d="M263.008 537.98a6.585 6.585 0 0 1-6.361 4.886h-32.736v-4.886z" transform="translate(633.171 38.698)"/>
        <path id="Path_287" data-name="Path 287" class="cls-27" d="M225.74 532a6.583 6.583 0 1 1-6.581 6.583A6.583 6.583 0 0 1 225.74 532z" transform="translate(631.342 36.396)"/>
        <path id="Path_288" data-name="Path 288" class="cls-28" d="M225.284 533.189a4.941 4.941 0 1 1-3.491 1.447 4.92 4.92 0 0 1 3.491-1.447zm2.634 2.306a3.725 3.725 0 1 0 1.09 2.633 3.713 3.713 0 0 0-1.09-2.633z" transform="translate(631.798 36.853)"/>
        <path id="Path_289" data-name="Path 289" class="cls-28" d="M224.383 535.53a1.7 1.7 0 1 1-1.2.5 1.689 1.689 0 0 1 1.2-.5z" transform="translate(632.7 37.754)"/>
        <path id="Path_290" data-name="Path 290" class="cls-14" d="M239.849 505.522c8.276 4.225 17.123 21.349 12.772 34.132-.148.432-.023 1.413.906.5 1.2-1.172 2.383-5.066 2.576-6.585.112-.871.3-3.1 1.276-.2 3.878 11.566-3.511 20.4-12.2 20.4h-.129a6.583 6.583 0 0 0-4.424-11.456h-16.368a18.009 18.009 0 0 1-.957-3.67c-1.677-10.952 4.237-14.784 8.206-22.768.51-1.025 1.156-.763 1.478.294a20.965 20.965 0 0 1 .73 5.115c.008.769.515.921.953.242 1.877-2.908 3.684-9.841 3.379-14.993-.078-1.337.6-1.622 1.8-1.01z" transform="translate(632.824 26.085)"/>
        <path id="Path_291" data-name="Path 291" class="cls-9" d="M238.463 523.941c1.838 4.206 9.136 10.4 7.448 17.738-.46 2-2.252 3.991-3.512 4.2a6.583 6.583 0 0 0-5.325-10.451h-4.8c-.4-3.321 1.716-8.541 4.768-11.737.99-1.036 1.078-.526 1.418.252z" transform="translate(636.373 32.972)"/>
        <path id="Path_292" data-name="Path 292" d="M245.948 552.764a8.64 8.64 0 0 0 6.245-8.663c0-8.883-7.85-14.039-9.775-23.361a.774.774 0 0 0-1.512-.1c-1.774 4.428-6.137 8.163-6.878 12.892-.112.715-.51.936-.878.156a20.986 20.986 0 0 1-1.249-5.926c-.1-.986-.917-.193-1.055-.011a18.43 18.43 0 0 0-3.471 14.563h-3.116a17.982 17.982 0 0 1-.957-3.667c-1.677-10.952 4.237-14.784 8.206-22.768.51-1.025 1.156-.763 1.478.294a20.965 20.965 0 0 1 .73 5.115c.008.769.515.921.953.242 1.877-2.908 3.684-9.841 3.379-14.993-.078-1.337.6-1.622 1.8-1.01 8.276 4.225 17.123 21.349 12.772 34.132-.148.432-.023 1.413.906.5 1.2-1.172 2.383-5.066 2.576-6.585.112-.871.3-3.1 1.276-.2 3.878 11.566-3.511 20.4-12.2 20.4h-.129a6.614 6.614 0 0 0 .9-1.005z" transform="translate(632.824 26.085)" style="fill:#e68f30;fill-rule:evenodd"/>
        <path id="Path_293" data-name="Path 293" class="cls-30" d="M232.125 519.661a32.437 32.437 0 0 0 2.413-13.129c-.078-1.337.6-1.622 1.8-1.01 7.706 3.935 15.907 19.05 13.488 31.433 2.012-11.848-7.691-23.9-11.325-26.144-.692-.428-1.1-.147-1.385.547a42.906 42.906 0 0 1-4.993 8.3z" transform="translate(636.333 26.085)"/>
        <path id="Path_294" data-name="Path 294" class="cls-30" d="M223.3 535.86c-1.677-10.952 4.237-14.784 8.206-22.768.51-1.025 1.156-.763 1.478.294a20.965 20.965 0 0 1 .73 5.115 1.453 1.453 0 0 0-1.069-.877c-1.09-.105-9.636 9.743-9.344 18.237z" transform="translate(632.824 28.868)"/>
        <path id="Path_295" data-name="Path 295" class="cls-30" d="M245.044 532.729c1.2-1.172 2.383-5.066 2.576-6.585.112-.871.3-3.1 1.276-.2 2.176 6.491.8 12.122-2.356 15.813 3.414-4.425 2.073-12.855 1.51-12.786-.514.064-1.27 2.242-3.005 3.753z" transform="translate(641.306 33.51)"/>
        <path id="Path_296" data-name="Path 296" class="cls-9" d="M230.285 454.339a1.147 1.147 0 1 1-1.147 1.147 1.146 1.146 0 0 1 1.147-1.147z" transform="translate(635.183 6.5)"/>
        <path id="Path_298" data-name="Path 298" class="cls-8" d="M100.052 549.781h571.689a4.51 4.51 0 0 1 4.5 4.5v5.055a4.51 4.51 0 0 1-4.5 4.5H100.052a4.51 4.51 0 0 1-4.5-4.5v-5.055a4.51 4.51 0 0 1 4.5-4.5z" transform="translate(583.762 43.24)"/>
        <path id="Path_299" data-name="Path 299" class="cls-25" d="M251.893 540.276a6.582 6.582 0 1 1 0 13.164h-32.734v-13.164h32.734z" transform="translate(631.342 39.581)"/>
        <path id="Path_300" data-name="Path 300" class="cls-26" d="M258.254 546.254a6.583 6.583 0 0 1-6.361 4.885h-32.734v-4.885z" transform="translate(631.342 41.882)"/>
        <path id="Path_301" data-name="Path 301" class="cls-27" d="M220.989 540.276a6.582 6.582 0 1 1-6.583 6.583 6.582 6.582 0 0 1 6.583-6.583z" transform="translate(629.512 39.581)"/>
        <path id="Path_302" data-name="Path 302" class="cls-28" d="M220.532 541.463a4.937 4.937 0 1 1-3.493 1.446 4.924 4.924 0 0 1 3.493-1.446zm2.633 2.3a3.726 3.726 0 1 0 1.09 2.634 3.717 3.717 0 0 0-1.09-2.634z" transform="translate(629.969 40.038)"/>
        <path id="Path_303" data-name="Path 303" class="cls-28" d="M219.631 543.8a1.7 1.7 0 1 1-1.2.5 1.686 1.686 0 0 1 1.2-.5z" transform="translate(630.87 40.939)"/>
        <path id="Path_304" data-name="Path 304" class="cls-25" d="M261.4 540.276a6.582 6.582 0 1 1 0 13.164h-32.736v-13.164H261.4z" transform="translate(635.001 39.581)"/>
        <path id="Path_305" data-name="Path 305" class="cls-26" d="M267.761 546.254a6.585 6.585 0 0 1-6.361 4.885h-32.736v-4.885z" transform="translate(635.001 41.882)"/>
        <path id="Path_306" data-name="Path 306" d="M230.494 540.276a6.582 6.582 0 1 1-6.583 6.583 6.583 6.583 0 0 1 6.583-6.583z" transform="translate(633.171 39.581)" style="fill:#b28161;fill-rule:evenodd"/>
        <path id="Path_307" data-name="Path 307" class="cls-32" d="M230.037 541.463a4.937 4.937 0 1 1-3.493 1.446 4.924 4.924 0 0 1 3.493-1.446zm2.633 2.3a3.723 3.723 0 1 0 1.091 2.634 3.715 3.715 0 0 0-1.091-2.634z" transform="translate(633.628 40.038)"/>
        <path id="Path_308" data-name="Path 308" class="cls-32" d="M229.136 543.8a1.7 1.7 0 1 1-1.2.5 1.684 1.684 0 0 1 1.2-.5z" transform="translate(634.529 40.939)"/>
    </g>
</svg>
