<svg xmlns="http://www.w3.org/2000/svg" width="58" height="58" viewBox="0 0 58 58">
  <g id="Group_232" data-name="Group 232" transform="translate(-202 -2168)">
    <g id="Group_231" data-name="Group 231">
      <circle id="Ellipse_11" data-name="Ellipse 11" cx="29" cy="29" r="29" transform="translate(202 2168)" fill="#fafafa"/>
      <g id="noun_Hotel_1760858" transform="translate(188.454 2078.219)">
        <path id="Path_911" data-name="Path 911" d="M114.349,390.449a4.555,4.555,0,0,0-2.672-.8h-9.04c-.339,0-.685-.013-1.024,0a.811.811,0,0,0-.124.01,1.77,1.77,0,0,0-1.5,1.3,3.146,3.146,0,0,0-.057.789v3.734H91.73v-7.065c0-.618.013-1.239,0-1.861v-.025a.951.951,0,0,0-1.9,0v13.456c0,.618-.013,1.239,0,1.857v.025a.951.951,0,0,0,1.9,0v-4.485h22.632v4.5a.951.951,0,0,0,1.9,0V394.1A4.517,4.517,0,0,0,114.349,390.449Z" transform="translate(-61.171 -272.344)" fill="#ffbf2e"/>
        <path id="Path_912" data-name="Path 912" d="M207.02,515.8a2.509,2.509,0,0,0-1.667-2.32,2.472,2.472,0,0,0-2.678.726,2.472,2.472,0,1,0,4.349,1.648v-.041S207.02,515.809,207.02,515.8Z" transform="translate(-169.872 -396.062)" fill="#ffbf2e"/>
        <path id="Path_913" data-name="Path 913" d="M377.017,108.253c-.082.079-.165.162-.247.241-.5.485-.992.973-1.487,1.458.133.77.263,1.537.4,2.308a.648.648,0,0,1-.228.666.639.639,0,0,1-.7.048c-.1-.054-.206-.111-.307-.165-.6-.317-1.2-.628-1.8-.948q-1.06.556-2.114,1.113a.639.639,0,0,1-.7-.051.652.652,0,0,1-.228-.666c.019-.114.038-.228.06-.342.111-.656.225-1.309.336-1.965l-.019-.019c-.571-.561-1.138-1.122-1.709-1.68a.635.635,0,0,1-.162-.618.622.622,0,0,1,.444-.444l.336-.048q1.051-.152,2.1-.307c.009-.019.019-.035.029-.054q.542-1.079,1.084-2.155a.543.543,0,0,1,.273-.254.712.712,0,0,1,.6.025.529.529,0,0,1,.174.146c0,.006.009.01.013.016s.006.01.009.013a.3.3,0,0,1,.032.054l.029.057h0c.041.082.082.168.127.25l.951,1.9c.032,0,.06.01.092.013l2.355.342a.628.628,0,0,1,.444.444A.668.668,0,0,1,377.017,108.253Z" transform="translate(-330.607 0)" fill="#ffbf2e"/>
      </g>
    </g>
  </g>
</svg>
