<svg xmlns="http://www.w3.org/2000/svg" width="58" height="58" viewBox="0 0 58 58">
    <g data-name="Group 448" transform="translate(-500 -2168)">
        <circle data-name="Ellipse 12" cx="29" cy="29" r="29" transform="translate(500 2168)" style="fill:#fafafa"/>
        <g data-name="noun_Guide post_1878247">
            <path data-name="Path 914" d="M38.431 26.015a.808.808 0 0 0-.571-.237H27.354v-9.7H37.86a.808.808 0 0 0 .571-.237l2.424-2.424a.808.808 0 0 0 0-1.143l-2.424-2.421a.808.808 0 0 0-.571-.237H27.354v-.808a.808.808 0 1 0-1.616 0V17.7H15.233a.808.808 0 0 0-.571.237l-2.424 2.424a.808.808 0 0 0 0 1.143l2.424 2.424a.808.808 0 0 0 .571.237h10.505v14.543h-3.232a.808.808 0 1 0 0 1.616h8.081a.808.808 0 0 0 0-1.616h-3.233v-6.465H37.86a.808.808 0 0 0 .571-.237l2.424-2.424a.808.808 0 0 0 0-1.143z" style="fill:#009182" transform="translate(501.454 2172.838)"/>
        </g>
    </g>
</svg>
