<svg xmlns="http://www.w3.org/2000/svg" width="58" height="58" viewBox="0 0 58 58">
  <g id="Group_233" data-name="Group 233" transform="translate(-202 -2278)">
    <circle id="Ellipse_13" data-name="Ellipse 13" cx="29" cy="29" r="29" transform="translate(202 2278)" fill="#fafafa"/>
    <g id="noun_easy_3428320" transform="translate(113.546 2267.58)">
      <g id="Group_95" data-name="Group 95" transform="translate(105.232 21.993)">
        <g id="Group_94" data-name="Group 94" transform="translate(0 0)">
          <path id="Path_923" data-name="Path 923" d="M127.691,103.162a2.277,2.277,0,0,1-.07,3.226l-7.86,7.5A2.314,2.314,0,0,1,123,114a2.058,2.058,0,0,1-.142,2.916l-1.069,1.01a2.307,2.307,0,0,1,3.6.629,2.44,2.44,0,0,1-.553,2.9l-1.166,1.1a2.315,2.315,0,0,1,3.141.015l0,0a2.2,2.2,0,0,1,.014,3.237l-4.388,4.143a8.322,8.322,0,0,1-11.293-.045l-3.56-3.362a7.257,7.257,0,0,1-1.527-8.725,9.22,9.22,0,0,0,1.023-6.4,2.168,2.168,0,0,1,.652-2,2.471,2.471,0,0,1,4.052,1.123l.689,3.978.8-.757,11.191-10.674a2.277,2.277,0,0,1,3.213.07Z" transform="translate(-105.232 -96.3)" fill="#ffbf2e"/>
          <g id="Group_93" data-name="Group 93" transform="translate(1.191)">
            <rect id="Rectangle_58" data-name="Rectangle 58" width="6.16" height="2.22" rx="1" transform="matrix(0.007, -1, 1, 0.007, 6.707, 6.16)" fill="#ffbf2e"/>
            <rect id="Rectangle_59" data-name="Rectangle 59" width="5.617" height="2.221" rx="1" transform="translate(10.107 6.535) rotate(-44.968)" fill="#ffbf2e"/>
            <rect id="Rectangle_60" data-name="Rectangle 60" width="2.221" height="5.531" rx="1" transform="matrix(0.705, -0.709, 0.709, 0.705, 0, 4.302)" fill="#ffbf2e"/>
          </g>
        </g>
      </g>
    </g>
  </g>
</svg>
