<svg xmlns="http://www.w3.org/2000/svg" width="175.429" height="146.389" viewBox="0 0 175.429 146.389">
  <g id="Group_325" data-name="Group 325" transform="translate(-182.304 -129.174)">
    <path id="Path_2265" data-name="Path 2265" d="M70.545-7.267c0-19.28-13.823-34.285-34.376-34.285C16.98-41.552,2.52-26.819,2.52-7.449c0,20.007,15.1,34.467,34.1,34.467A33.887,33.887,0,0,0,70.545-7.267ZM61.087-7.63c0,15.915-11.459,25.737-24.464,25.737-13.1,0-24.645-10.822-24.645-25.555C11.978-22,21.891-32.64,36.26-32.64,50.9-32.64,61.087-22,61.087-7.63Z" transform="translate(179.984 228.552)" fill="#f7c90d"/>
    <path id="Path_2264" data-name="Path 2264" d="M7.739-38.13h8.91v14.638h8.372v7.2H16.649V17.926q0,2.742,1.86,3.672a7.907,7.907,0,0,0,3.427.539q.636,0,1.371-.024t1.714-.122v6.952a19.672,19.672,0,0,1-3.158.636,30.022,30.022,0,0,1-3.549.2q-6.169,0-8.372-3.158a14.033,14.033,0,0,1-2.2-8.2V-16.295H.64v-7.2h7.1ZM66.586-23.492h9.742q-1.86,5.043-8.274,23.01-4.8,13.512-8.029,22.031Q52.388,41.622,49.255,46.028T38.484,50.434a21.132,21.132,0,0,1-2.864-.147,22.624,22.624,0,0,1-2.472-.539V41.719a30.4,30.4,0,0,0,3.329.783,13,13,0,0,0,1.811.147,6.343,6.343,0,0,0,3.6-.808,7.452,7.452,0,0,0,1.934-1.983q.245-.392,1.762-4.014t2.2-5.385L28.4-23.492h9.987L52.437,19.2Z" transform="translate(281.063 225.13)"/>
    <path id="Path_2266" data-name="Path 2266" d="M26.957-1.831c0-7.548-5.113-13.009-13.044-13.009C6.052-14.84.8-9.136.8-1.831.8,5.4,5.983,11.387,13.844,11.387S26.957,5.508,26.957-1.831Zm-5.739,0c0,4.278-2.783,8.348-7.374,8.348-3.965,0-7.3-3.687-7.3-8.348,0-4.244,3.026-8.139,7.374-8.139C18.331-9.97,21.218-6.283,21.218-1.831Z" transform="translate(248.717 201.84)" fill="#f7c90d"/>
    <path id="Dashboard" d="M17.464,21.929q-5.539,0-8.278-2.952T6.446,9.938V-3.149H.42v-6.878H6.446v-8.4h8.4v8.4h9.678v6.878H14.846v11.5q0,3.287,1.126,4.717a4.484,4.484,0,0,0,3.744,1.43,10.705,10.705,0,0,0,2.77-.365,17.332,17.332,0,0,0,2.709-.974l.913,6.939a12.694,12.694,0,0,1-3.835,1.37A24.184,24.184,0,0,1,17.464,21.929Zm14.731-.974V-10.028h8.1l.061,6.148a10.284,10.284,0,0,1,3.317-4.961,8.211,8.211,0,0,1,5.2-1.735,11.043,11.043,0,0,1,1.978.183,6.114,6.114,0,0,1,1.613.487l-.73,7.974a13.422,13.422,0,0,0-1.887-.548,9.319,9.319,0,0,0-2.009-.243A6.349,6.349,0,0,0,42.482-.258q-1.887,2.465-1.887,7.091V20.955Zm37.8.974a13.052,13.052,0,0,1-7.335-2.1,14.367,14.367,0,0,1-5.022-5.813,18.926,18.926,0,0,1-1.826-8.461A17.99,17.99,0,0,1,57.76-2.876,15.571,15.571,0,0,1,63.026-8.81,13.23,13.23,0,0,1,70.482-11,11.762,11.762,0,0,1,76.356-9.51a10.723,10.723,0,0,1,4.17,4.231l.122-4.748h8.035V20.955H80.648l-.122-4.748Q77.3,21.929,70,21.929Zm2.5-7.548a7.7,7.7,0,0,0,5.9-2.5,9.032,9.032,0,0,0,2.313-6.391A9.115,9.115,0,0,0,78.4-.958a8.232,8.232,0,0,0-11.809,0,9.115,9.115,0,0,0-2.313,6.452,9.031,9.031,0,0,0,2.313,6.391A7.7,7.7,0,0,0,72.491,14.381Zm33.661,6.574L94.161-10.028h9.313L110.657,12.8l7.487-22.827h8.7L114.918,20.955Zm61.3,0V-18.428h8.4V20.955Z" transform="translate(181.884 147.602)"/>
    <path id="Dashboard-2" data-name="Dashboard" d="M2.016-15.246c0,9.765,6.993,16,16.254,16C23,.756,27.783-.693,30.807-3.465L27.279-8.631a12.444,12.444,0,0,1-8.127,3.024c-5.166,0-8.253-3.213-8.757-7.056H33.012v-1.764c0-9.954-6.174-16.758-15.246-16.758C8.505-31.185,2.016-24.066,2.016-15.246Zm15.75-9.576a7.048,7.048,0,0,1,7.5,6.741H10.269C10.647-21.105,12.789-24.822,17.766-24.822Z" transform="translate(310 168)"/>
  </g>
</svg>
