<svg xmlns="http://www.w3.org/2000/svg" width="70" height="58.336" viewBox="0 0 70 58.336">
    <g data-name="Group 121">
        <path data-name="Path 139" d="M12.619.797H0v1.462h5.484v14.173h1.639V2.259h5.5zm3.583 6.267V4.783h-1.505v11.648h1.575v-5.935c0-2.746 1.484-4.3 3.92-4.3.111 0 .244.022.376.022V4.69c-2.151.005-3.635.822-4.366 2.374zm16.143-2.281v2.214a5.087 5.087 0 0 0-4.429-2.3 5.635 5.635 0 0 0-5.8 5.913 5.653 5.653 0 0 0 5.8 5.935 5.046 5.046 0 0 0 4.5-2.414v2.3h1.506V4.783zm-4.3 10.364a4.265 4.265 0 0 1-4.34-4.54 4.265 4.265 0 0 1 4.34-4.54 4.26 4.26 0 0 1 4.327 4.545 4.26 4.26 0 0 1-4.322 4.535zM46.541 4.783l-4.407 9.921-4.362-9.921h-1.639l5.16 11.648h1.617l5.182-11.648zm8.415 10.364a4.317 4.317 0 0 1-4.384-3.035l9.567-1.86a5.483 5.483 0 0 0-5.58-5.558 5.625 5.625 0 0 0-5.76 5.918 5.787 5.787 0 0 0 6.134 5.935 5.687 5.687 0 0 0 4.473-1.9l-.886-1.019a4.528 4.528 0 0 1-3.564 1.519zm-.4-9.1a3.95 3.95 0 0 1 4.008 3.344l-8.216 1.594a3.428 3.428 0 0 1-.022-.487 4.154 4.154 0 0 1 4.231-4.452zm12.069 10.5a4.433 4.433 0 0 0 1.417-.244l-.11-1.311a2.751 2.751 0 0 1-1.063.2c-1.307 0-1.949-.753-1.949-2.126V0h-1.572v13.2a3.014 3.014 0 0 0 3.278 3.342z"/>
        <text data-name="O" transform="translate(0 50.337)" style="font-family:Muli-Regular,Muli;font-size:33px;fill:#ffbf2e"><tspan x="0" y="0">O </tspan></text>
        <text transform="translate(34 49.837)" style="font-family:MontserratAlternates-Regular,Montserrat Alternates;font-size:33px"><tspan x="0" y="0">ty</tspan></text>
        <text transform="translate(23.319 34.157)" style="font-size:12px;font-family:Helvetica-Bold,Helvetica;font-weight:700;fill:#ffbf2e"><tspan x="0" y="0">O</tspan></text>
    </g>
</svg>
