<svg xmlns="http://www.w3.org/2000/svg" width="48" height="48" viewBox="0 0 48 48">
    <defs>
        <style>
            .cls-3{fill:#009182}
        </style>
    </defs>
    <g id="Group_438" data-name="Group 438" transform="translate(-361 -574)">
        <g id="icon" transform="translate(361 574)">
            <g id="Mask">
                <rect id="Mask-2" data-name="Mask" width="48" height="48" rx="8" style="fill:#fff"/>
                <rect id="Mask-3" data-name="Mask" width="48" height="48" rx="8" style="fill:rgba(58,51,53,.04)"/>
            </g>
        </g>
        <g id="noun-conversation-4462630" transform="translate(246.889 529.888)">
            <path id="Path_2031" data-name="Path 2031" class="cls-3" d="M148.4 59.9h-1.233v-1.234A6.174 6.174 0 0 0 141 52.5h-12.334a6.174 6.174 0 0 0-6.166 6.166v9.866a6.177 6.177 0 0 0 4.933 6.043v5.056a1.233 1.233 0 0 0 .71 1.116 1.219 1.219 0 0 0 .523.117 1.232 1.232 0 0 0 .789-.285l4.144-3.453a6.166 6.166 0 0 0 4.933 2.5h3.268l5.828 4.663a1.233 1.233 0 0 0 2-.963v-3.818a6.177 6.177 0 0 0 4.933-6.043v-7.4A6.174 6.174 0 0 0 148.4 59.9zm-19.734 12.332a3.7 3.7 0 0 1-3.7-3.7v-9.866a3.7 3.7 0 0 1 3.7-3.7H141a3.7 3.7 0 0 1 3.7 3.7v9.866a3.7 3.7 0 0 1-3.7 3.7h-4.933a1.232 1.232 0 0 0-.789.285L129.9 77v-3.535a1.233 1.233 0 0 0-1.233-1.233zm23.434 1.233a3.7 3.7 0 0 1-3.7 3.7 1.233 1.233 0 0 0-1.233 1.233v2.367L143 77.435a1.235 1.235 0 0 0-.771-.27h-3.7a3.69 3.69 0 0 1-3.036-1.619l1.016-.847H141a6.174 6.174 0 0 0 6.166-6.166v-6.167h1.234a3.7 3.7 0 0 1 3.7 3.7z"/>
            <path id="Path_2032" data-name="Path 2032" class="cls-3" d="M204.95 185.6a1.85 1.85 0 1 1-1.85-1.85 1.85 1.85 0 0 1 1.85 1.85" transform="translate(-73.2 -122.001)"/>
            <path id="Path_2033" data-name="Path 2033" class="cls-3" d="M274.95 185.6a1.85 1.85 0 1 1-1.85-1.85 1.85 1.85 0 0 1 1.85 1.85" transform="translate(-138.267 -122.001)"/>
            <path id="Path_2034" data-name="Path 2034" class="cls-3" d="M362.45 185.6a1.85 1.85 0 1 1-1.85-1.85 1.85 1.85 0 0 1 1.85 1.85" transform="translate(-219.601 -122.001)"/>
        </g>
    </g>
</svg>
