<svg xmlns="http://www.w3.org/2000/svg" width="58" height="58" viewBox="0 0 58 58">
    <defs>
        <style>
            .cls-2{fill:#009182;fill-rule:evenodd}
        </style>
    </defs>
    <g id="Group_449" data-name="Group 449" transform="translate(-500 -2278)">
        <circle id="Ellipse_14" data-name="Ellipse 14" cx="29" cy="29" r="29" transform="translate(500 2278)" style="fill:#fafafa"/>
        <g id="noun_support_4254527" transform="translate(504.538 2286.873)">
            <path id="Path_915" data-name="Path 915" class="cls-2" d="M27.186 9.742a8.161 8.161 0 0 0-8.161 8.158h-2a10.161 10.161 0 1 1 20.323 0h-2a8.161 8.161 0 0 0-8.162-8.158z" transform="translate(-3.661)"/>
            <path id="Path_916" data-name="Path 916" class="cls-2" d="M15 40.167c0-.595 1.027-1.078 1.622-1.078s1.624.483 1.624 1.078v8.083c0 .595-1.029 1.078-1.624 1.078S15 48.845 15 48.25z" transform="translate(-2.258 -21.725)"/>
            <path id="Path_917" data-name="Path 917" class="cls-2" d="M13.742 38.072v7.757a.936.936 0 0 0 .1.064 1.473 1.473 0 0 0 .312.136.571.571 0 0 0 .429 0 1.481 1.481 0 0 0 .313-.136.937.937 0 0 0 .1-.064v-7.757a.945.945 0 0 0-.1-.064 1.481 1.481 0 0 0-.313-.136.572.572 0 0 0-.429 0 1.473 1.473 0 0 0-.312.136.936.936 0 0 0-.1.064zm-.92-1.787a3.216 3.216 0 0 1 1.542-.454 3.222 3.222 0 0 1 1.542.454 2.568 2.568 0 0 1 .685.57 1.662 1.662 0 0 1 .4 1.054v8.083a1.662 1.662 0 0 1-.4 1.054 2.568 2.568 0 0 1-.685.57 3.222 3.222 0 0 1-1.542.454 3.216 3.216 0 0 1-1.542-.454 2.566 2.566 0 0 1-.684-.571 1.663 1.663 0 0 1-.4-1.053v-8.084a1.663 1.663 0 0 1 .4-1.053 2.566 2.566 0 0 1 .684-.571z" transform="translate(0 -19.467)"/>
            <path id="Path_918" data-name="Path 918" class="cls-2" d="M63.519 74.9a3.346 3.346 0 0 0 .852-2.459h2a4.957 4.957 0 0 1-5.311 5.311h-2.155v-2h2.156a3.346 3.346 0 0 0 2.458-.852z" transform="translate(-32.686 -44.842)"/>
            <path id="Path_919" data-name="Path 919" class="cls-2" d="M78.382 40.167c0-.595-.9-1.078-1.5-1.078s-1.367.483-1.367 1.078v8.083c0 .595.772 1.078 1.367 1.078s1.5-.483 1.5-1.078z" transform="translate(-44.2 -21.725)"/>
            <path id="Path_920" data-name="Path 920" class="cls-2" d="M73.131 36.338a2.615 2.615 0 0 1 1.5-.508 2.9 2.9 0 0 1 1.517.478 1.972 1.972 0 0 1 .98 1.6v8.083a1.972 1.972 0 0 1-.98 1.6 2.9 2.9 0 0 1-1.517.478 2.615 2.615 0 0 1-1.5-.508 1.98 1.98 0 0 1-.871-1.57v-8.083a1.98 1.98 0 0 1 .871-1.57zm1.13 9.566a.473.473 0 0 0 .05.041.72.72 0 0 0 .183.095.448.448 0 0 0 .134.029.642.642 0 0 0 .176-.036 1.08 1.08 0 0 0 .249-.118.7.7 0 0 0 .07-.052v-7.827a.7.7 0 0 0-.07-.052 1.079 1.079 0 0 0-.249-.118.642.642 0 0 0-.176-.036.447.447 0 0 0-.134.029.721.721 0 0 0-.183.095.473.473 0 0 0-.05.041z" transform="translate(-41.942 -19.467)"/>
            <path id="Path_921" data-name="Path 921" class="cls-2" d="M46.877 85.133a1.078 1.078 0 0 0 0-2.156h-2.694a1.078 1.078 0 0 0 0 2.156z" transform="translate(-21.736 -52.142)"/>
            <path id="Path_922" data-name="Path 922" class="cls-2" d="M39.846 81.8a2.078 2.078 0 0 1 2.078-2.078h2.694a2.078 2.078 0 0 1 0 4.156h-2.693a2.079 2.079 0 0 1-2.079-2.078zm2.078-.077a.077.077 0 1 0 0 .155h2.694a.077.077 0 0 0 0-.155z" transform="translate(-19.478 -49.883)"/>
        </g>
    </g>
</svg>
